<?xml version="1.0" encoding="UTF-8" standalone="no"?>
<!-- Generator: Adobe Illustrator 18.0.0, SVG Export Plug-In . SVG Version: 6.00 Build 0)  -->

<svg
   xmlns:dc="http://purl.org/dc/elements/1.1/"
   xmlns:cc="http://creativecommons.org/ns#"
   xmlns:rdf="http://www.w3.org/1999/02/22-rdf-syntax-ns#"
   xmlns:svg="http://www.w3.org/2000/svg"
   xmlns="http://www.w3.org/2000/svg"
   xmlns:sodipodi="http://sodipodi.sourceforge.net/DTD/sodipodi-0.dtd"
   xmlns:inkscape="http://www.inkscape.org/namespaces/inkscape"
   version="1.1"
   id="Слой_2"
   x="0px"
   y="0px"
   viewBox="0 445 1590 718"
   enable-background="new 0 445 1590 718"
   xml:space="preserve"
   inkscape:version="0.91 r13725"
   sodipodi:docname="mountains-and-trees.svg"><metadata
     id="metadata13"><rdf:RDF><cc:Work
         rdf:about=""><dc:format>image/svg+xml</dc:format><dc:type
           rdf:resource="http://purl.org/dc/dcmitype/StillImage" /><dc:title /></cc:Work></rdf:RDF></metadata><defs
     id="defs11" /><sodipodi:namedview
     pagecolor="#ffffff"
     bordercolor="#666666"
     borderopacity="1"
     objecttolerance="10"
     gridtolerance="10"
     guidetolerance="10"
     inkscape:pageopacity="0"
     inkscape:pageshadow="2"
     inkscape:window-width="1055"
     inkscape:window-height="970"
     id="namedview9"
     showgrid="false"
     inkscape:zoom="0.19496855"
     inkscape:cx="782.17741"
     inkscape:cy="358.99999"
     inkscape:window-x="0"
     inkscape:window-y="0"
     inkscape:window-maximized="0"
     inkscape:current-layer="Слой_2" /><path
     fill="#000000"
     d="M1590,823.4v-27.7h-7.3l-0.7-93  c2.5-1.1,0.8-3-1.2-3.4c-0.1-2.3,1.9-5.4-2-5.3c0.3-0.8,0.1-2.4,0.5-3.2c-1.7-0.1-3.4,0-5.2-0.3c1.3-1.2,3.8-1.3,5.8-1.3  c1.9-3.6-0.1-8.1,1.3-11.8c-1.6,1.7-7.7,2.5-7.8-0.7c1.6-0.5,2.9-2,4.2-3c-1.3,0.4-2.4-1.9-4.4-1.9c1.9-2.4,4.6-5,4.6-8.3  c-1.3,1.7-4.5,1.5-6.5,0.7c2.4-2.1,2.8-5.7,4.6-7.9c-2-2.3-4.2-3.2-7.4-3c1.6-4.2,0.5-4.5-3.3-6.1c0.8-1.9,3.6-3.6,5.8-3.8  c-0.3-0.7-0.5-1.6-1.3-2c-1.5-0.5-3.6-0.1-5.2-0.3c1.1-0.5,0.9-1.1,2.5-1.3c0.4-4.5-4.2-2.8-5.3-4.6c-1.6-2.9,2.6-3.4,4-5.2  c-1.9-0.1-2.8-1.1-2.3-2.7c-2.3,0-4.5,0.8-7,0.5c-0.5-2.5,3.3-5.6,5.7-6.1c-2-2.5-4.8-1.9-7.6-1.9c1.1-0.5,1.9-1.2,3-1.5  c-0.9-2.3-4.4-0.9-6.4-0.5c1.9-0.7,3.6-1.6,4.4-3.3c-1.2,0.1-2.7-0.4-3.8-0.3c-0.8-2.8,1.6-3.7,2.8-5.8c0.9-1.9,1.1-4.5,1.9-6.5  c-2.3,2.3-5.3,5.7-8.6,4.9c0.9-3,4-4.9,5.2-7.8c-1.7,1.1-2.1,3.7-4.5,3.2c1.1-4.1,6.8-6.2,7.2-9.8c-2.7,0.1-4.6,2.1-6.5,3.8  c-0.5-2.3,1.3-5.4,3.2-6.5c-2.4,1.5-6.8,2.5-9.7,4c2.7-2.5,3.8-5.8,5.2-9.3c-1.3,1.6-3.3,2.3-5.3,1.7c0.1-2.4,1.6-5,1.9-7.2  c-1.5,1.1-3.2,2.3-5.2,1.9c0.4-1.2,1.2-2.7,1.9-3.8c-0.5,0.1-1.2,0.1-1.9,0.5c0-2.3,2.8-4.1,3.8-5.8c-2.4-0.1-5.4-1.5-7.3-2.9  c1.5-1.3,3.3-2.8,2.5-5c-2.7,0.8-5.3,2.3-7.8,0.7c0.9-1.9,3.4-2.5,4.5-4c-2-0.4-3.8-1.1-6-1.6c2.8-5.6-0.4-8.3-0.3-14.4  c-0.7,0.7-1.9,0.8-2.4,1.2c-0.3-3.4-0.7-7.7,1.2-10.5c-0.7-0.3-2.5-0.7-3-0.7c-0.9,1.1-1.2,2.4-0.9,3.8c-1.5,0-2.7-1.5-3-2.5  c-0.3,2.1-0.5,5.2-0.1,7.3c0.5,2.5,2.4,4,2.8,6.6c0.4,0.1,0.8,0.1,1.2,0.3c-0.8,1.1-2.4,1.7-3.8,2c-0.8,2.8,1.3,4.5,2.5,6.4  c-1.6,1.9-1.2,3.2-3.3,4.8c-2.3,1.9-4,0.9-6.6,1.7c2-2.3,2.9-5.3,3.7-8.2c-0.7,0.4-7.2,0.3-7.8-0.4c-0.5-0.5,0.3-5.2,0.3-6.6  s-0.9-1.3-0.3-3.3c0.3-0.9,2.4-2.1,2.9-3.3c1.1-2.5,0-5.3,0.9-7.8c-1.6,2.1-5.2,3-7.7,2.4c1.6-2.4,5-2.8,3.8-6.5  c-3.8-0.9-6.1,2.8-9.8,1.9c1.5-3.3,1.2-6.6,0-9.4c-1.7-3.7-4.1-6.6-2.1-11.1c-0.7-0.1-1.2-0.1-1.9,0c-0.5,3.7,3.4,14.7-1.3,15.4  c-0.8,3.8,1.5,4.5,2.5,7.3c1.1,2.5,0.5,4.2,2.4,6.8c-2.7,1.5-2.7,6.6,0.9,6.8c-0.4,0.7-0.3,2-0.5,2.4c0.4,0.1,0.8,0.1,1.1,0.3  c0,2.8,0.8,6.5,1.3,9.1c-3.2,0.1-6.5,0.3-9.3,2.3c1.3,0.5,3.6,1.3,5,2.4c-2.1,2.8-8.6,4.1-7,8.7c1.3-0.8,6.2-1.5,8-1.3  c5.4,0.4,2.7,2.5,3.3,6.1c0.5,2.5,4.4,3.4,4.6,4.8c0.4,2.9-5.8,3.2-6.5,6.4c1.5-1.2,3.3-1.5,5.2-1.1c0,0.5,0.3,1.2,0.1,1.9  c0.5,0,1.2,0.1,1.9,0.1c2.8,8.7-15.9,3.3-18.5,7.8c3,0.3,11.7-1.2,10.7,4.1c0.5,0,1.2,0.3,1.9,0.1c-0.1,0.9,0.4,2.3,0.3,3.2  c5-2.4,8.3,2,6.6,7.4c-1.3,4.1-4.6,2.5-8.2,2.1c0.4,0.1,0.8,0.5,1.5,0.7c-2.1,3.3,3.7,6.4,3.3,9.8c-0.5,0-1.2,0.3-1.9,0.1  c-2.3,6.8,10.1,1.2,8.5,6.5c-2.1,0.4-4.4,0.8-6.5,1.6c0.9,1.1,4.4,2.8,4.8,4.4c0.7,2.6-3.3,5.8-6,6.1c0.5-0.5,1.1-1.3,1.6-1.9  c-1.2,0.5-2.7,1.1-3.7,1.2c2.4-2-0.3-4.9-2.8-3.4c2.6-2.3,2.5-6.4,4.6-8.6c-2.3,1.3-5.4,1.3-7.7,1.5c1.9-2.3,3.3-4.8,4.9-7.2  c-1.9,0.5-3.2,1.6-5,1.9c0.3-2,2.6-2.9,2.5-5.2c-0.5,0.3-1.6,0.3-2.4,0.7c1.7-2.1,4.6-4.4,3.7-7.3c-1.6-0.4-3.2,0.4-4.5,1.2  c0-1.5,0.3-2.8,0.9-4c-3.7,2.4-5.3,0.9-9,1.3c1.2-1.6,4.1-3.7,1.3-5.4c0.7-0.9,1.2-2,2.4-2.5c-2.5-0.4-5.7,0.5-7.6,2.1  c3.6-2.7,4-5,3.6-9.4c-1.5,2.3-4.9,4.8-7.8,4.5c0.5-2.4,3.3-3.2,4.5-5c-1.1-0.1-1.9-0.9-3-0.9c0.9-1.6,1.7-3.2,2.8-4.6  c-1.7,1.5-4.2-0.4-6.4-0.7c0.3-1.6,1.2-3.4,1.9-5.2c-0.9,0.1-2.3-0.4-3.2-0.3c1.2-1.6,2.1-3.7,1.9-5.8c-1.6,0-3.2,0.1-4.5-0.7  c0.5-1.5,1.6-2.1,3.2-2.1c-1.2-2-4.8-2.4-6.6-3c1.5-0.5,3-0.8,3.8-2.1c-2.3-0.3-5.3-0.5-7.2,0.4c0.3-0.5,0.3-1.3,0.5-1.7  c-0.7,0.1-1.7-0.3-2.4-0.3c2.3-2.1,2.4-4.8,4.9-6.4c-1.9,1.1-3.8,2.3-5.8,2.4c0.4-0.5,0.8-1.3,1.2-1.9c-1.5,1.2-3.3,2.3-5.3,3  c1.9-0.9,5.8-5.4,1.3-5.8c0.1-1.9,2.4-5.3,3.3-7c-1.1,1.1-2.7,1.6-4,1.6c-0.1-2.4-0.7-5.3,0.9-7.2c-0.7,0.8-2.1,1.3-2.9,1.9  c-2.3-1.7-1.3-4.6-1.6-7.2c-0.4-0.1-0.8-0.1-1.1-0.3c-0.5-2,0.1-4,1.6-5.3c-1.5,0.4-3,0.1-3.8-1.1c-1.2,1.9-2.5,7-2.5,9  c0,2.6,3,8.7-0.8,10.2c0.5,0.5,0.9,2.1,1.2,2.5c-0.7-0.1-1.7,0.3-2.5,0.3c0.1,1.6,1.7,2.4,3.2,3.2c-1.5,3,1.1,5-4.5,4.8  c-1.2,3.8,3,4.9,5,7.4c-3.6,2,0.4,2.5,0.1,5c-0.5,0-1.2,0.1-1.9,0.1c-0.3,3.7,2.5,4.4,5.2,5.4c-0.7,1.6-2.7,2.3-4.5,2.7  c-0.4,2.6,3.7,10.5-2,10.5c0.5-2,1.7-4,1.2-6.5c-2.5-0.3-5-2.9-5.4-5.4c-0.4-0.3-0.8-0.3-1.1,0c0,1.6,0.9,3,1.2,4.5  c-0.4,0.1-0.8,0.1-1.1,0.3c-0.1,2.1-0.7,4.5,0.9,6c-3,0.4-4.2-0.9-6.4-2.6c-0.7,2.4,0.9,4.2,0.4,6.5c-1.6-0.4-3.2-2-3.7-3.2  c-0.3,2.4,2.9,5.2,0.7,6.8c0.5,1.2,1.9,2.1,3.2,2.6c-6.6,0.5,0.1,5.2,2,7.7c-2.5,0.3-4.9,0-7.2-0.4c0.5,2.5,3.6,2.8,5.8,2.6  c1.5,5.4-4.1,8.1-8.3,8c1.7-1.5,2.5-3.4,3.7-5.3c-2.6-0.3-5.3,0-7.9-0.3c0.3-0.3,1.9-1.7,1.9-2c0-0.1,0.9-3.6,0.8-3.3  c0.7-1.6,2.9-3.6,2.4-5.7c-1.2,0-2.5-0.3-3.7-0.1c3.4-1.6,7.4-6.8,6.4-10.7c-1.5,1.6-3.7,3.2-5.8,3.8c0.4-1.9,1.9-3.7,1.2-5.8  c-0.5,0.3-2,0.3-2.5,0.4c0.8-1.2,0.8-2.5-0.3-3.8c-2.5,1.7-7.2,4.4-10.3,3.8c2.1-4.4,8.5-4.5,10.3-9.8c-2.7,1.1-5.8,2.1-8.3,3.2  c1.9-1.9,5.7-4.2,5-7.2c-0.3,0-1.9,0-2.4,0c-2,1.9-5,1.7-6.9,0c4.2,2,11.9-5.7,11.4-10.6c-2.8,2.9-5.8,2.9-9.3,2.4  c0.9-1.5,1.9-2.8,1.9-4.5c-0.7,0.1-1.6-0.3-2.4,0c1.2-1.6,3-3.4,3-5.3c-2,0.1-3.4,1.3-5.7,1.2c1.1-2.4,3.2-4.2,3.7-6.5  c-1.3,0.4-2.7,1.2-3.8,1.9c0.4-0.7,0.8-2.4,1.2-3.2c-1.5-0.1-2.7,0-3.8,0.4c1.5-1.7,2.5-3.8,3.7-6c-0.7,0-1.7-0.1-2.3,0  c-0.1-0.4-0.1-0.8-0.3-1.1c-0.9,0.1-2.3-0.4-3.2-0.3c0.7-0.7,0.8-1.9,1.2-2.4c-1.2,0.1-2.7-0.4-3.8-0.3c1.9-2.7,4.5-6.2,6.1-9  c-0.8,1.3-2.4,2-4.1,1.6c0.4-0.5,0.3-1.3,0.5-1.7c-0.7,0.1-1.7-0.3-2.5-0.3c0.3-0.4,0.3-2,0.5-2.4c-0.4-0.1-0.8-0.1-1.1-0.3  c-0.4-2.3,1.5-4,2.5-5.8c-1.2,0.1-2.7-0.3-3.8-0.3c-0.3-2.1,1.5-3,1.2-5.2c-0.7-0.1-1.3-0.7-1.9-0.8c0.8-1.3,0.7-2.5-0.1-4  c-0.5,0-1.2-0.3-1.7-0.3c-0.3-1.3-0.8-2.8-1.5-4l-1.3,0.7c-1.7,0.8-1.6,5.8-1.5,7.9c-0.4,0.1-0.8,0.1-1.2,0.3  c1.9,2.3,2.4,3.7,3.2,6.4c-0.9,0.1-1.7,0.8-2.5,0.9c0.9,0.8,1.7,1.7,3.2,2c2.3,3.4-2.1,3.6-1.3,7.2c-0.7-0.1-1.9,0.4-2.5,0.3  c-0.3,0.8-0.3,1.7,0,2.5c2.3-0.3,4.2,1.1,3.8,3.3c-0.9-0.1-2.3,0.4-3.2,0.3c4,3.8-2.3,3-2.7,5.8c2.5,0.7,8.2,0.9,7.2,4.6  c-2.3,0.3-4.5-0.3-6.5,0.9c1.3,2,4.9,1.1,7.2,1.3c0,2,1.7,2.8,2,4.5c-2-2-7.9-2.9-11-2.7c1.2,1.3,2.8,2.1,4.2,3.3  c-1.5-0.1-3.2,0-4.2,0.9c1.7,2.7,5,3.6,8.3,3.3c0.4,0.5,1.2,2.3,1.3,2.8c-0.1,0.3-0.5,0.7-0.8,1.1c-2.4-1.3-6,0.1-8.3-1.1  c-1.5,0.1-2.7,0.8-3.4,1.7c2.3,0.4,1.9,2.3,3.4,3.3c1.5,1.1,3.4,1.6,5,2.1c-3.3,1.2,2.7,1.7,3.4,2.1c1.5,0.8,2.9,2.3,3.3,3.7  c-4.6,3.8-11.9-4.9-16.6-3.2c-8.3,3.2,8.9,6.8,9.3,7.2c-0.9-0.3-2.3-0.1-3.2-0.4c0.7,3,8.3,2.9,11.1,4.1c-1.1,1.6-5.8,2.4-8,1.9  c-2.9-0.7-3.7-4.4-7.3-3.2c0,0.7-0.1,1.1,0,1.9c0.4,0.3,1.3,0.5,1.7,0.7c-1.9,0-3.4-1.5-5-1.7c0.1,3.3,4.4,4.9,4.5,7.2  c-0.4,0.1-0.8,0.1-1.2,0.3c0.1,1.2,1.1,2.8,1.9,3.7c-0.9-0.1-2.3,0.4-3.2,0.3c0.4,1.2,0.8,2.6,1.2,3.8c-0.5,0-1.3,0.3-1.9,0.3  c-0.3,0.8-0.3,1.7,0,2.5c0.4,0.1,0.8,0.1,1.1,0.3c0.1,0.7,0,1.2,0,1.9c-1.7,0.1-3.4,0-5.2,0.3c-0.8,3,2.8,3.3,3.8,5.2  c-4,0.8,0.4,3.2,0,5.4c-1.5,0.3-2.3,1.1-3.2,2c1.2,0.9,2.4,1.5,3.8,1.6c0.4,0.9,0.7,2.4,0.7,3.2c-1.6-0.8-3.2-0.5-4.5,0.8  c0.7,1.7,2.5,2.5,4.5,2.8c0.1,0.7,0.1,1.1,0,1.9c-1.7,0.1-3.4,0-5.2,0.3c0,2.5,5,3.3,7.2,3.3c0.3,0.4,0.3,0.8,0,1.1  c-2,0.5-4-0.3-5.8-0.4c-0.1,0.7-0.1,1.1,0,1.9c1.6,0.1,3,0.8,4.4,1.5c-2,0.4-4.1,1.1-3.7,3.3c4.2-0.8,3.7,4.4,1.9,6.6  c-0.4-2-2.1-2.1-3.8-1.9c-0.7-2.1,0.7-3.7,0.5-5.8c-0.5,0-1.2-0.3-1.9-0.1c-1.2-2.6-0.8-5.7-1.5-8.5c-0.7-2.6-2-4.9-2.8-7.3  c-0.1,3.8,1.6,6,1.3,9.8c-0.1,2.8,0,3.4-1.6,5.7c-1.5,2-4,2-2.9,5c0.7-0.4,1.7-0.5,2.4-1.1c-0.8,0.4-1.3,1.3-1.9,1.7  c0.5,0.3,1.2,1.2,2,1.5c-1.7,2.4,0.9,2.8,0.8,4.5c-0.1,1.6-4.5,3.4-0.1,4.1c0.3,0.5,0.4,1.2,0.7,1.7c-4.8,2.9-3.4,2.8-0.7,6.6  c-0.7,0.4-1.1,0.7-1.9,0.8c0.1-0.7-0.3-1.9-0.1-2.5c-0.5,0-1.2-0.3-1.9-0.1c-0.4-2,0.8-3.6,1.9-5.2c-0.9,0.1-2.3-0.4-3.2-0.3  c-0.5-2.5,2.3-2.8,1.9-5.2c-0.9,0.1-2.3-0.4-3.2-0.3c-0.9-2.7-1.3-5.3-2.3-7.8c-3.4,1.6-0.9,5.2-1.3,7.8c-1.5,0-3,0-4.5,0.3  c1.1,2.3,4.4,2.9,4.5,5c-0.9-0.1-2.3,0.4-3.2,0.3c-0.3,0.4-0.3,0.8,0,1.1c1.2,0,2.1,0.8,3.2,0.9c-0.5,0.3-0.9,1.1-1.9,1.3  c1.1,1.2,2.8,2.4,2.7,4.2c-2.1-2-5.4-0.4-7.3,0.8c1.6,0.7,5.2,0.1,6.2,1.3c1.6,1.9,0.4,4.6-2.1,4.4c0.3,1.2,0.5,2.5,0.5,3.8  c-0.4,0.1-0.8,0.1-1.1,0.3c-0.1,2.4,2.4,3.3,1.7,5.8c-1.5-0.7-2.8-1.2-4.5-1.2c0.4,2.9,4.1,5.4,3.8,8.3c-0.9-0.4-1.7-0.1-2.5-0.3  c0.3,1.7,1.5,3.3,1.2,5.2c-1.6,0.3-2.8-0.1-3.8-1.2c0.1,1.9,2.1,2.7,2.5,4.5c-0.7-0.1-1.3,0-2-0.3c1.1,2.3,3,5.8,6.1,5.7l-4.6,7.4  c1.7-2.3-1.1-4.5-0.8-7.3c-4.9-1.1-1.1-9.8-5.8-10.9c1.9-3.2,0-2.9-0.5-4.9c-0.7-2.1-0.7-4.1-0.9-6.5c-2.9,1.7,0.5,4.8-1.1,7.2  c3,2.1-3.7,6.4,1.9,6.4c-0.5,1.2-1.7,2.1-3,2.5c0.3-0.1,0.7,0,0.9,0.1c0.3,2-1.3,3.2-1.1,5.2c0.5,0,1.2,0.3,1.9,0.1  c-0.4,4.6-0.3,9.4-0.7,14.6c-4.1,0.4-2-4.5-3.2-6.8c0.1-0.4,0.4-0.5,0.4-0.9c-0.7-1.2-2.5-2.8-2.7-4.2c-0.1-0.8,1.5-1.9,1.5-3.3  c-0.1-2-1.6-2.9-2-4.5c-0.4-1.3,0.3-2.1,0-3.4c-1.1-6.1-4.1-9.9-4.9-16c-0.5,0.5-1.3,2.1-1.6,3.2c3.8,1.2,0.1,2.3-0.1,3.7  c-0.3,1.2-0.3,2.9-0.1,4.5c0.1,1.9,0.3,2.9,0.8,4.5c0,0.1,0,0.1,0.1,0.3c-1.2,0-2.4-0.1-3.4-0.1c0.4-4.9-3.2-7-0.8-11.8  c-5.4,0.5-2.7-9-7.2-8.7c-0.5,2.3,1.6,2.5,1.9,3.8c0.1,1.7-1.2,2.5-1.3,4.1c-0.1,2.4,1.9,4.1-0.4,6.1c2,1.6,2.3,3.6-0.1,4.8  c1.5,2.8-0.5,5.4-0.3,8.5c-7.6,0.8-4.4-17.5-3.3-21.2c-3.8-1.2-3.8-2.8-3.3-6.1c-2-0.4-4-0.8-5.8,0c1.3,1.9-0.3,3-0.1,4.5  c0.1,1.6,1.3,2.8,1.3,4.6c-0.9-0.1-2.3,0.4-3.2,0.3c-0.3,0.8-0.3,2.3,0,3.2c1.7,0.7,2,0.8,2,2.6c0.4,0.1,0.8,0.1,1.2,0.3  c-1.6,1.6-2.3,3.7-1.3,5.8c-1.5,0-2.5,0.3-3.8,0.9c0,0.8,0,1.1,0.4,1.7c-0.5,0.8-0.5,0.5-0.5,1.5c0.7-0.1,1.7,0.3,2.5,0.3  c-0.1,0.9,0.4,2.3,0.3,3.2c0.5,0,1.3,0.3,1.9,0.3c-1.1,1.3-2,2.8-1.9,4.4c0.4,0.1,1.1,0.5,1.2,0.7c-5.3,2-2.5-5.3-6.5-4.4  c-1.6,3.7-2.8,7.2-2.8,11.7c-0.7-2.9-0.5-6-0.8-9c-0.7,0.1-1.9-0.4-2.5-0.3c-0.7-2.8,0.5-5.2-0.1-7.8c-3.6,0.1-2.7-4.9-3.4-7.4  c-0.7,1.7-3.7,5.2,0,6.1c1.1,3.8,1.3,3.4-0.5,7c-0.9,1.9-4,6.5,0.7,6.2c-0.5,1.7-0.8,2-2.5,2c-0.5,2.3,1.5,3.8,1.3,5.3  c-0.3,1.7-1.6,2.4-2,3.8c2,0.5,3.4,2,4.5,3.7c-1.2,2.5-4,5.8-5.3,1.5c-0.3,0.5-0.5,0.9-0.7,1.5c0.3-2-0.5-4-2.5-4.6  c-0.4-1.9,0.5-3.3,0.4-5.2c-1.3,0.4-2.4,0.5-3.3,1.7c0.1-1.5,0.1-2.9-0.1-4.4c-1.7,2.1-3.8,2.3-6.5,1.9c0.9-1.3,0.7-1.7,0.7-3  c1.3-1.1,3-2,4-3.4c1.1-1.7-1.3-3.3,1.1-4.1c-2,0.8-5.4,1.9-7.7,1.3c0.1-0.9-0.4-2.3-0.3-3.2c-1.5,0-3-0.1-4.5-0.3  c0.4-0.5,0.5-1.9,1.2-2.4c-1.9-0.3-3.8-0.1-5.7-0.1c1.9,0.1,7.3-4,7-6c-1.3,0.1-2.7,0.7-3.6,1.3c2-2.5,0.9-5.6-2.8-4.8  c2.9-1.5,3-4.8,3.7-7.3c-1.9,0.3-3.3,2.3-5.2,2.4c0.7-0.9,0.1-1.5,0.4-2.3c-0.4-0.1-0.8-0.1-1.1-0.3c0.1-2.6,4.6-1.9,4-5.7  c-1.5,2.5-5,2.1-7.2,1.1c6.9-1.2,6-4.5,8.6-9.8c-1.2,2.4-4.5,2.8-6.8,3.7c0-0.4,0.1-0.8,0.3-1.2c-1.2,0.8-2.3,0.8-3.4,1.3  c0.9-1.7,2.1-4.1,2.4-6c-0.8,0.4-2.3,0.3-3.2,0.4c0.1-0.3,0.3-1.1,0.3-1.3c-1.9,2.3-4.1,2.9-6.9,3.4c2.7-2,1.6-4-0.8-4.6  c4.2-0.5,8.2,0.3,11.1-3.6c-3.6,0.1-7-0.8-10.3-0.8c1.2-1.9,4.1-1.2,6.1-2.4c1.5-0.9,2.6-2.8,4-3.8c-2.9,0.4-11.9,5.3-12.7-0.1  c3.3-0.3,6.8,0.4,9.8-0.9c-0.1-2.8-3.6-1.9-5.7-1.9c2.3-0.1,6.6-0.8,5.7-4c-1.5-0.1-2.9-0.1-4.4-0.1c1.5-0.7,2-1.7,1.6-3.3  c-0.4-0.1-0.8-0.1-1.2-0.3c0.3-0.3,0.8-1.3,1.2-1.7c-1.6-1.3-4.2-0.9-6.4-0.8c1.3-0.1,2.3-1.1,2.4-2.5c-2.5,0.1-4.8-0.1-5.7-2.8  c1.2,0,5.4,0.7,6.4-0.1c1.5-1.5,0.8-3.7-1.1-3.8c-0.1,0.4-0.1,0.8-0.3,1.1c-2.3,0.9-4.4,1.2-6.5,0c1.6-1.2,4.4-2.1,6.5-2.6  c0-0.3-0.5-2.1-0.7-2.4c-0.5,0-1.3-0.3-1.9-0.3c0.8-0.4,2-1.2,3.2-1.3c-0.8-1.2-0.9-1.9-1.3-3c-1.5-0.5-2.8-1.2-4.4-1.5  c2.1-1.1,5.7-2.1,5-5.3c-2.4,0.3-4.9,0.5-7.7,0.7c0-1.2-1.1-1.7-1.1-2.7c0-1.2,1.7-2.1,2-3.3c-0.8,0.4-2.3,0.3-3.2,0.4  c-1.7-3.3-0.3-8.5-2-11.3c-0.3,2.3-0.7,3.7-2,5.4c-1.2,1.7-3.4,1.3-2.8,4.4c1.3-0.1,2.5-0.3,3.8-0.4c-0.1,0.5-0.3,0.8-0.5,1.5  c0.9,1.7,0.9,5.2,1.1,7c-8.3-0.9,0,4.5,1.3,6c-2.3-0.7-5.2-0.7-7.8-0.4c-1.5,5.8,2.8,3.3,5.8,5.4c-1.5,2.1-4,0.4-5.8,2  c1.3,2.1,4.9,0.7,7.2,2c0.1,0.9-0.1,0.7-0.4,1.3c0,0.5,0.5,0.5,0.5,1.1c-0.9,0.1-1.6,0.8-2.5,0.9c0,0.4,0.1,0.8,0.3,1.1  c-2.1-0.1-4.9,0-4.4,2.7c2.8,0,5.2,1.9,7.8,2.3c-0.7,1.1-13,2.9-4.8,6.4c-0.3,0.1-0.7,0.3-1.1,0.3c-0.7,3.3,3.8,4.9,6.5,4.6  c0.1,0.4,0.7,2.1,0.7,2.4c-2,0.3-4,0-5.8,0.3c-0.3,0.4-0.3,0.8,0,1.1c0.7,0.1,1.2,0.4,1.7,0.7c-2.8,0.8-5.6,0.7-8.5,0.9  c1.2,5.6,12.9,2,16.6,4.6c0.3,3.7-8.5,6.9-7.2,11.1c0.1,0.1,1.3,0.7,1.2,0.7c-4,1.1-7.8-5.6-9.3-8c-1.7-2.8-2.4-7.2-5.3-9.4  c1.2-2.5,0-4.8-0.9-7.2c-1.7,0.8-3.2,2-5,1.9c0.1-0.9-0.4-2.3-0.3-3.2c-1.6,0.3-2.5,2.1-3.4,3.7c-2,3.7-1.2,0.9,0.1,3.7  c0.5,1.2,1.7,0.8,2.1,2.5c0.1,0.7-1.3,1.7-1.5,2.6c-0.3,2.4,0.4,4.4-0.7,6.5c0.4-2.3-1.1-3.2-1.2-4.6c-0.1-1.7,0.9-3.2,0.4-5.2  c-0.4-0.1-0.8-0.1-1.1-0.3c-0.4-3.7,0-7.6-0.8-11c-0.1,1.1-0.5,2-0.8,3c-1.3,0.7-2.9,1.1-4.5,0.9c-0.9,3.2,1.6,2.9,2.1,5  c0.7,3-1.3,2.7-1.6,5.6c0,0.4,0.7,5.4,0.7,5.3c0.8,1.9,1.6,3.2,4,3.4c0.1,1.6-0.8,2.3-2.5,2c-0.1,1.5-0.1,3,0,4.5  c3.6,0.3,3.6,10.2,8.3,11.5c-2,0.8-4.1,1.3-6.4,1.5c-0.3,2.7,1.1,3.2-0.7,5.4c-1.3,1.7-3.6,2.4-5.6,1.5c-1.9,1.1-3.7-0.1-4.1-2.3  c-0.5,0-1.2-0.1-1.9-0.3c0.1-0.7-0.4-1.9-0.3-2.5c-0.9,0.1-2.3-0.4-3.2-0.3c0.4-0.5,0.3-1.3,0.5-1.7c-0.5,0-1.2-0.1-1.9-0.3  c-0.3-2.7,3.2-4,4.6-6c1.5-2,1.9-4.5,2.5-6.6c-1.6,3-7.7,3.6-5.4-0.7c-1.7,1.2-4.1,2.5-6.5,1.9c-0.7-4.2,2.7-7.3,1.1-11.9  c-0.8-2.3-1.5-2.7-1.9-5.3c-0.3-2.1,0.1-3.8-0.8-6c-2.7,0.1-4.6-5.7-4.6-8.1c-1.5,0.9-1.6,2.8-1.3,4.5c0.3,2.5,0,1.1,1.5,2.9  c2,2.5,2.4,0.9,2.8,4.5c0.1,1.3-0.5,2.9-0.3,4.6c0.4,2,2.1,2.5,1.6,5.3c-0.5,2.5-0.5,2-2.7,3.4c-2,1.2-2.5-0.8-3.3,2  c-0.3,0.9,1.3,2.8,2,3.2c-0.8,0.1-1.3,0.7-1.9,0.8c0.5,0.4,1.3,2.1,1.9,2.5c-2.4,0.8-1.5,2.3-2.5,3.6c-0.7,0.8-2,1.9-2.7,2.6  c-0.9,0.9-2.9,0.7-2,3.3c0.4,1.3,2,1.6,3.3,1.5c-0.8,0.5-1.5,1.5-2.5,1.9c1.6,2.5,2.8,8.5-1.3,9.3c0.1-0.7-0.3-1.7-0.3-2.5  c-2.3,1.1-5.3,0.7-7.8,0.5c-0.8-0.8-0.8-1.2-1.9-1.9c0.9-1.5,1.7-3.3,2.1-4.8c-2,1.6-3.8,2.7-6.4,2c0.4-0.5,0.3-1.3,0.5-1.7  c-1.3-0.4-2.4-0.9-3.7-0.8c5.7-2.1,5.7-5.8,9.8-9.8c-2.7,2-6.4,1.7-9.7,1.7c1.7-1.1,2.9-2.9,3-4.6c-1.2,0.7-2.8,1.3-4.4,1.2  c0.1-0.5,0.3-1.2,0.5-1.7c-0.5,0.1-1.5,0.1-1.9,0.3c2.4-2.4,6.1-6.4,6.4-9.8c-2.9-0.5-4.8,5.3-9,5.3c1.1-2,3.3-2.9,3.8-5.2  c-1.6,2.3-4.4,2.1-6.5,1.1c2.8-1.6,4.6-3.7,5.7-6.6c-1.1,0.7-2.5,0.8-3.8,0.4c1.1-1.6,2.7-2.9,3.7-4.6c-1.5,1.5-3.6,2.5-5.7,2  c0.1-0.7-0.4-1.9-0.3-2.5c-0.4-0.1-0.8-0.1-1.1-0.3c-0.3-2.3,0.3-4.9-0.3-7.2c-0.4-1.9-1.7-3.4-2-5.4c-3.3,2.1,0.1,8.1-0.7,11.3  c-1.9-0.1-4.1,0.1-5.8,0.9c0,2,1.7,2.9,3.7,2.5c-0.4,0.1-0.8,0.4-1.1,0.7c0.1,1.3,0.9,2.4,2.4,2.7c-1.2,0.5-2.3,0.8-3.7,0.8  c1.5,1.3,4.2,2.8,3.8,5.2c-2.9-0.7-6.5-5-9.8-3.8c2.3,3.8,7.7,4.6,11,7.3c-1.9,1.1-2,2.9-1.2,4.6c-1.2-0.3-2.3,0.7-3.2,0.7  c0.3,1.7,1.6,2.9,3.2,3.6c-2,1.6-4.8-1.7-6.2-0.4c-1.7,1.6,1.7,3.6,2.9,4.6c-5.3-2.7-11.5-2.4-16.8-5.6c-3.6-2.1-6-3.4-10.1-4.2  c-3-0.5-7-0.7-8.1-4.5c-0.7-0.1-1.1-0.1-1.9,0c0.4,1.6,0.7,3.6,1.2,5.2c-2,0.5-6-0.4-7.4-1.7c-2.1-1.9-1.1-3.7-2.7-6.1  c-1.7,0.8-2.3,2.7-2,4.5c-0.7,0-1.7,0.4-2.4,0.3c0.8,0.7,1.6,1.3,2.4,1.7c-8.7-4-19.1-5.2-28.6-8.7c-5.2-2-10.2-4.6-15.4-6.5  c-3.6-1.3-28-16.3-30.7-17.2c-4.6-1.6-9.3-2.3-14-3.6c-8.7-2.3-18.6-2.5-27.4-4c-19.5-3.3-38.3-7.3-56.8-14.2  c-10.5-4-20.3-7.9-30.6-12.1c-11.3-4.5-20.9-5.8-33.1-6.5c-12.7-0.7-25.4-3.7-37.5-6.5c-5.2-1.2-10.5-2.6-15.9-2.3  c-5.7,0.4-11.1,3-16.7,4.1c-4.6,0.8-10.9,0.1-15.2,2.1c-3.6,1.7-6.1,5.8-9.3,8.1c-3.7,2.5-8.2,4.5-11.7,7.7c-3.3,2.9-6.4,6.2-9.7,9  c-8.1,6.8-17.4,13.6-26.8,18.7c-4.8,2.5-9.9,4.1-14.7,6.6c-4.6,2.5-8.5,6.2-12.9,9.1c-9.7,6.6-17.2,15.9-26.6,22.9  c-8.2,6.2-19.2,7.9-25.4,16.7c-6.5,9.1-19.1,6.5-29.5,6.5c-5.6,0-10.9,0.1-16-1.2c-5-1.3-11.4-2.9-16.7-2.1  c-2.5,0.3-4.5,2.5-6.6,2.8c-2.3,0.1-5.7-1.7-8.1-2c-6-0.5-10.9,1.7-16,4.4c-5,2.6-9.5,7.4-14.7,9.4c-5.2,2-11.3,2.9-16.7,5  c-9.7,3.6-18.3,8.7-28.1,11.1c-5.3,1.3-9.7,4-14.7,5.3c-5.2,1.5-9,2.3-14.6,2.8c-0.1,0.4-0.1,0.8-0.3,1.2c-3-2-25,5.2-22.5-3.8  c0.9,0.1,2.3-0.4,3.2-0.3c0.5-2.3-1.5-4.2-0.1-6.4c3.4,3.4,5.2,4.1,10.1,3.7c-0.4-0.8-0.4-2.3-1.2-3c4.2-0.1,7.3-2,6.6-6.6  c-1.1,1.6-6.5,0.5-8.6,0.3c1.3-1.6,2.9-3.6,2.5-5.8c-2.1,0.3-4.2,0-4-2.5c-2.1,0.3-3.8,0.9-5.8,1.7c0-1.3,0.5-2.8,1.2-3.8  c-3,0.9-13.9,0-6.6-3.3c-1.9-0.7-5.2-2.9-5.3-4.9c-0.1-1.2,4.8-5.7-1.2-4.8c0-2.4,3.7-2.1,2.1-4.8c-1.2-1.9-4.8,0.8-4.9-2.4  c-0.8-0.5-1.6-1.2-2.4-1.9c1.2-3.3-0.7-6.6-0.1-10.2c1.6,0.9,3,2.5,3.3,4.5c0.9-1.1,2.3-2.1,3.7-1.9c-0.1,1.6-0.1,3.3,1.3,3.8  c0.1-0.9,0.8-1.6,0.9-2.5c4.2,1.5,1.1,4.8,2,7.8c1.7-0.9,1.6-3,3-3.8c0,0.8,0.5,1.7,0.7,2.4c1.1-0.9,1.6-2.3,1.6-3.7  c1.7,0.4,1.5,2.3,3.2,3.2c-0.3-0.8-0.1-2.1-0.7-3c1.6,2.3,4.4-0.5,6.6-0.4c-0.7-1.3-2.3-1.7-3.8-2c0.1-0.1,0-1.5,0-1.9  c-1.2-0.8-2.4-1.7-3.2-2.8c2.5,0.5,4.2-0.5,6.4-1.5c-0.3-2.7-3.8-1.3-5.7-3c0.4,0,1.2-0.1,1.6-0.1c-2.4-0.1-3.7-2.8-2.8-4.8  c-2.5,1.3-8,1.5-9-1.9c1.1-0.7,0.8-1.5,1.2-2c-1.3-0.4-2.6-0.9-3.8-1.5c0.4-2,0.8-4.2,3.2-4.2c-0.1-1.6-1.5-2.1-3.2-2  c0.8-1.1,1.5-2.5,1.9-3.8c-0.9,0.1-2.3-0.4-3.2-0.3c0.5-0.7-0.1-0.7,1.1-1.2c-1.2,0.3-2.5,0-3.7-0.1c0.1-0.4,0.4-0.7,0.5-1.1  c-0.9-0.5-1.1-1.6-1.7-2.3c2.1-1.3,4.9-4.4,6.4-6.5c-0.5,0-1.2-0.1-1.7-0.1c1.5-0.8,1.2-1.7,1.7-2.7c-3.4-0.3-5.2-2.1-7.9-3.3  c0.9,0.1,2.3-0.4,3.2-0.3c-0.7-2.1-2.4-2.7-4.5-2.7c1.2-1.1,1.6-2.8,1.3-4.5c1.2,0.1,2.6-0.4,3.8-0.3c0.3-0.4,0.3-0.8,0-1.1  c-0.7,0-1.2-0.1-1.9-0.3c1.5-1.1,3.8-1.3,5-3.2c-1.2,0-5.7-0.4-6.5-1.5c-1.9-2.4,1.6-3,0.1-5.3c0.5-0.1,1.1-0.7,1.9-0.8  c-0.3-0.9,0-2.4-0.5-3.2c4,0.5,6.8,2.4,9.8,4.5c-0.7-1.7-2.5-3.3-2.5-5.2c0.4-0.1,0.8-0.1,1.1-0.3c0.7-3.3-3.6-2.5-5.8-2.7  c0.5-0.7,0.3-1.6,0.7-2.3c-0.8,0.4-1.7,0.1-2.5,0.3c1.3-1.2,0.7-2,1.1-3.2c-2.5,0-4.6,2.1-7.2,1.9c0.3-0.5,0.4-1.2,0.7-1.6  c-0.5,0.1-0.5,0.7-1.3,0.3c1.1-1.7,3.2-2.8,4.4-4.6c-1.9-0.3-4.9-0.4-3.8-2.5c2.5,1.5,6-0.7,7.8-2.8c-1.7,1.3-5.2,1.3-5.8-1.2  c-0.7,0.1-1.7-0.4-2.5-0.3c0.8-1.5,1.9-3,3-4.4c-1.5,1.6-4,2.1-5.8,3c-1.7-2.7,0.3-7.3-0.1-10.6c-0.1,0.3-0.3,0.5-0.5,1.1  c-0.4-1.2-0.9-2.9-1.2-3.7c-2.5,2.7-0.7,6.5-0.9,9.8c-0.4,0.1-0.8,0.1-1.1,0.3c0.1,0.4,0.3,1.2,0.5,1.7c-1.2-0.1-2.7,0.3-3.8,0.3  c0,3.7,4.8,3,5.2,5.8c-6.1,0.1-1.2,6.8-5.2,7.6c-0.4,2,1.2,3.4,3.2,3.3c-0.3,2-2.4,1.5-2.6,3.2c-0.1,0.8,1.9,2.8,2,4  c-2-0.1-5.2-0.3-5.2,1.9c-2.8,1.3-6,5.7-7.6,8c3.3-2.5,7.9-2.8,11.4-4.4c-1.9,2.9,1.9,5.7,0,8.5c-0.7-0.1-1.7,0.4-2.5,0.3  c0.3,1.2-0.3,2,0.5,3c-0.5,0-1.3,0.3-1.9,0.3c0.7,0.7,1.5,2,2.4,2.5c-3.4,1.7-5,4.4-4.4,8.5c0-0.4,0.1-1.7,0.1-2.4  c2.1-0.3,4,0.9,6.4,0.7c1.6,3.6,0.5,4-1.2,6c-1.3,1.5-5,2.5-0.9,5.2c-2.6,1.7-1.3,3.7-1.3,6.1c-4.2-0.4-5.4,6.9-9,8.1  c2-0.1,3.8-1.2,5.6-2.1c-0.5,0.3-1.2,1.1-1.7,1.5c0.4,1.6,1.5,2.6,3,3.2c-2.1,1.6-7.2,3.6-6.4,6.6c1.7-0.5,3.2-1.2,5-1.3  c-0.7,1.1-1.6,2.4-2.4,3.3c1.9-0.3,3.3-2.3,5.2-2.5c1.3,1.5,3.8,5.3,2.6,7.8c-1.3,2.9-6.5,1.3-6.5,4.8c1.7-0.1,3.6,0.4,5.2,0.9  c-0.8,0.5-2.5,0.8-3.8,0.7c0.1,0.9-0.4,2.3-0.3,3.2c-6.4,0.5-10.2-0.9-13.4,5.8c0.4-0.4,0.9-0.7,1.3-1.1c-1.1,1.7-2,3.7-1.9,5.8  c1.5,0.1,2.6,0,3.8-0.5c0.3,2-0.9,3.3-2,5c1.3-0.5,2.6-0.3,4,0.4c-0.3,0.5-0.3,2-0.4,2.5c1.5-0.8,3.4-0.8,5.2-0.4  c-0.9,1.1-1.5,2.4-1.2,3.8c0.4-0.4,1.3-0.7,1.7-1.1c0.3,1.5,0.1,2.9-0.4,4.4c1.6-1.3,3.7-2.5,5.8-3.2c-0.3,2.4-1.5,4.6-1.1,7.2  c0.4-0.1,1.2-0.3,1.7-0.5c1.5,4-3.3,3.3-4.5,5.8c0.9-0.1,2.3,0.4,3.2,0.3c0.1,0.3,0.5,1.7,0.5,2c-4.5,2.4-1.9,6.8,1.6,4.6l0.7,6  c0.1-3-12.7-0.1-15.4,0c-3.2,0.1-5.8,1.1-8.7,1.3c-3.2,0.3-6.1-0.7-9.1-0.7c4.4,0,4.9-3.3,9-3.4c0.8,0,1.7-0.5,2.9-0.4  c1.2,0.1,0.7,1.9,2.5,1.7c1.5,0,2-3,4.6-2.6c-1.2-1.1-2.3-2.1-3.7-2.7c0.3-5.6-9.1-7.4-8.9-1.3c-2.6-4-4.1,1.3-5.8,2.7  c-2.1,1.6-4.8,1.7-7.3,1.3c0-4.8,4.2-5.2,7.8-5.3c-0.4-0.4-0.5-1.3-1.1-1.9c1.7-1.3,4.2-1.3,6.4-2.1c-1.6-3.3,1.1-4.5,3.4-6  c1.6-1.1,7.6-4.1,2.1-6.2c0.5-2,5.2-5.6,0.7-6.6c0.1-1.7-0.3-2.1-1.3-3.2c0.1,0.1,0.4,1.5,0.5,1.7c-4,0.3-5.7,0-5.4,4.8  c-4.6-1.3-6.4,5.3-10.1,6c-0.1,0-3.4,0.4-3.2,0.3s-2.5,1.3-2,1.2c-0.9,0.1-1.2,0.8-2.7,0.8c-1.1,0-2.3-0.3-3.2-0.3  c-1.2-2.8-0.1-5.7-2.1-7.8c1.7,0.1,2.8-0.9,3.3-2.5c0.7,1.3,1.7,1.9,2.5,2.4c0-0.5,0.1-1.2,0.3-1.9c1.9,0.3,3.8,1.7,5.8,1.9  c-2-3.3-10.3-4.8-10.6-7.2c0.4-0.1,0.8-0.1,1.1-0.3c1.3-4.8,8.7-2.8,12.7-2c-0.9-1.2-2.1-2.4-3-3.7c1.6-1.5,4.2-0.7,6.4-0.9  c-0.3-2.1-2.6-3.4-3.8-5c2.4-1.6,5.3-0.7,7.7-0.1c-2.5-0.8-3-2.8-0.5-4.2c-0.9-2.3-3.6-2-5.8-1.7c0.1,0.7-0.4,1.9-0.3,2.5  c-2-1.3-4,0.1-5.7,0.7c0-0.3-0.1-0.7-0.3-0.9c-2.5,1.2-4.8,6.5-8.1,6.4c-3.4-0.3-2.6-4.4-2.4-7.2c1.5,0.3,2.6,1.1,4,1.9  c-2.4-2.4,3.6-5.2,7-3.2c-0.5-0.4-1.1-1.2-1.7-1.6c1.1-2.9,4.5-2.5,7.2-2.7c0.7-4.2,7.3-3.4,10.7-2c0-2.1-2.6-2.8-4.4-3.3  c2.7,0,5.3,0.3,7.7-0.8c0-0.7-0.3-1.7-0.7-2.4c-0.5,0-1.2-0.3-1.9-0.3c0.4-3-1.3-4.8-0.9-7.8c-2.1,0-4.1,1.6-5.8,2.5  c-0.3-1.6-0.8-1.6-1.3-2.5c0.1,0.9-0.4,2.3-0.3,3.2c-5-0.4-9.9,1.7-14.7,0.9c-1.9-0.4-5,0-5.8-2.1c-0.7-1.9,2.1-4.4,0.5-7.2  c2.1,0,4.2-1.7,6.6-1.7c-0.8-1.1-0.1-1.3-1.9-2c1.5-1.2,4.5-1.5,5.3-3.2c0.8-1.9-0.1-4.6-1.9-5.3c-0.5,0.7-1.7,1.3-2.1,1.9  c0.4-0.8,0.3-2.3,0.4-3.2c-2.5-0.3-5.2-0.1-7.7-0.1c4.4-0.8,0.4-4.6-0.3-5.8c-0.9-1.7-1.5-4.2-3.7-4.9c2.1-1.2,4.8-2.5,6.4-3.8  c-3.3,0.1-3.4-3.2-4.8-5.2c2.6,1.3,6.5-0.8,8.1-2.8c-3.8,0.1-5.8-2.8-9.3-2.9c0-2.3,3.6-3.2,0.8-5.2c2.4-0.7,4.4,0.5,6.4,1.1  c0-3.3-3.6-4.6-6.5-5.3c0.1-0.9-0.4-2.3-0.3-3.2c-2.5,0-4.1-1.1-5.8-2.9c0.9-2.1,4.6-4.4,1.3-6.5c0.8-1.1,2.1-2.5,2.5-3.8  c-4.8,0.8-3-4.5-3.2-7.6c-0.1-2.4-1.3-4.5-1.5-6.9c-0.3,3-1.3,5.8-1.3,8.7c-1.3-0.5-2.8-1.6-4.4-1.9c0.8,2.4,3.4,3.4,4.4,5.8  c-0.7-0.5-1.9-0.8-2.4-1.2c3.4,4,1.1,6.2,0.9,10.5c-1.7,0.3-3-0.9-4-2.4c-0.9,1.7,1.3,4,3.3,4.5c0.3,0.8,0.3,2.3,0,3.2  c-6.4-0.4-4.9,4-5.3,8.7c-1.2-0.1-2.6,0.4-3.8,0.3c1.1,1.6,1.5,2.9,0.1,4.8c-1.2,1.6-3.2,0.4-4,2c-1.6,2.8,3.2,4,5.8,4.6  c-0.8,1.1-0.1,2-0.5,3c0.4,0.1,0.8,0.1,1.1,0.3c0.1,1.3,0.5,3.7,0.3,5c-0.1,0.5-0.8,1.9-0.9,2.6c-0.4,2.1-2.1,5.3,1.3,6.4  c0.8,3.4-1.6,7-5.2,6.6c0.5,0.5,0.8,1.5,1.7,2c-2.1-0.3-3.4,1.9-2.4,3.8c0.9,1.7,4.8,1.5,6.1,2.7c4.4,4-2.6,4.1-6.1,4.2  c0.9,0.8,1.3,2.3,1.9,3c-3.3,1.1-5.3-2.7-7.8-3.2c0,5.4,12.2,4.2,11.1,9.1c-4,2.1-11.1,1.2-10.7-4.5c-4.5,3.4-3.4-5.8-4.9-7.2  c-2.3,1.5-1.7,5.4-5,5.8c-3.2,0.4-4.5-3.3-4.6-5.8c-1.3,1.7-2.9,2.7-5.2,2.4c1.3,1.5,2.4,3.6,1.2,5.3c-2.1-0.5-3.8-2-6-1.9  c0.5,2.3,2.5,3.6,4.5,4.8c0,0.3,0,0.4-0.3,0.5c3.3,3,4.6,3.6,8.9,3.3c-2.4,2.5-5.2,5-5,8.7c2.4-2.3,14-4,11.8,2.7  c-0.3,0.1-0.7,0.1-0.9,0.1c0.3,0.1,0.4,0.3,0.3,0.5c-2.9,1.3-4.5,1.9-7.2-0.4c-1.5,4.9,5.7,4.4,7.2,6.5c-0.4,0.1-0.8,0.1-1.2,0.3  c0.9,1.6,2.5,3,4.5,3.3c1.9,2.5,0,3.8-2.5,4.8c1.7,2.1,5,3.2,6.5,5.7c-1.1,0.4-1.7,1.1-3.2,0.9c0.8,1.3,2.3,1.9,3.8,2  c-0.9,0.8-1.1,1.6-2.5,2c0.1,0.4,0.1,1.3,0.5,1.9c-3.7,3-6,7.4-11.3,6.6c0.3-0.4,0.3-2,0.5-2.4c-2.4-0.8-4.4,1.5-6.6,1.6  c2.4-3.2,5.7-8.5,6-12.3c-2.6,2-5.7,6.4-9.1,6.5c0.7-1.9,2.1-3.6,3.2-5.2c-2.5,1.6-4.6,1.3-7.3,2.3c-0.5-2.1-2.4-3.8-3.7-5.6  c3.2-2.7,4.2-3.4,8.3-3.6c-0.9-0.9-0.4-1.5-1.9-2c1.3-2.9,3.6-1.2,6-1.3c-0.4-0.3-0.9-0.9-1.7-1.3c1.2-1.6,3.2-3,3-5.2  c-2,2.1-3.4,3.2-6.5,2c0.1,0.9-0.4,2.3-0.3,3.2c-3,0-5-2.5-7.8-3.4c-2.6-0.8-4.8-0.1-7.6,0.1c-3.7,0.4-4.9,0.5-8.1,2.5  c-2.3,1.5-2.8,2.5-6,2.3c0.3,0.4,0.3,2,0.5,2.4c-2.3,0.3-7.2-3.3-8.5-5c1.7-1.5,3.7-1.7,5.8-1.6c-0.9-1.3-2.1-2.7-3.7-3.2  c1.9-1.6,4.2-3.3,6.9-2.7c-0.8-0.3-1.5-1.1-2.3-1.5c3-1.5,7.3,0.3,9.8-1.2c-1.7-0.8-3.2-2.3-4.4-3.7c2.8-1.9,4.8,0.3,7.7-0.7  c-0.4-0.5-0.3-1.2-0.9-1.9c1.9-2.7,2.8-6.4,6.2-7.4c-2.9,0-5.4-0.8-8.1-1.1c0.8-0.1,1.6-0.4,2.3-0.3c-0.3-0.4-0.3-1.2-0.9-1.9  c0.9-1.2,2.3-2,3.7-2.1c-0.7-0.3-0.9-1.1-1.9-1.3c1.9-3.2,9.1-8,0.7-7.3c0-1.5-0.1-3-0.3-4.5c-2.1-0.1-4.9,3.2-6.5,4.5  c-0.1-0.4-0.1-0.8-0.3-1.2c-1.5,0.1-3.8,2.4-5.3,1.9c-0.4-0.1-0.8-0.9-1.2-1.9c4-1.1,8.3-0.9,11.1-4c-4.8-1.1-2-3.4-1.1-6  c0.4-1.2,0.5-1.3,0.7-2.4c0.1-1.2-0.3-2,0.4-3c-0.7,0.1-1.9-0.4-2.5-0.3c-0.5-2.4-2.4-2.4-2.9,0c-2,0.3-4-0.8-5.7-1.9  c3.4-0.9,2.5-5,2.3-7.9c-0.5,0.4-1.3,0.3-2.1,1.2c-1.5-1.6-3.6-0.8-5,0c-0.1-1.9-0.1-3.8-0.1-5.7c-0.7,1.9-2,3.2-4.1,3.2  c-4.2-0.1-1.1-2-2.4-3.6c-2.8-3-9.1-1.2-7.4-7c0.4-0.1,0.8-0.1,1.1-0.3c0-1.3-1.1-2.3-2.5-2.6c1.2-1.3,3.3-2.1,5.2-2  c0.3-0.8,0.3-2.3,0-3.2c-2.3-0.1-4.1-1.1-6.5-0.9c-0.4-2.5-2.9-4.2-5.3-4c0.1-2-1.9-6,0.5-7.2c2-1.1,4.2,2.1,6,2.5  c-0.1-0.7,0.3-1.9,0.3-2.5c1.2-0.3,2.8,0.5,3.4,0.4c0.7-0.1,2.9-1.3,3.2-1.2c3.2,0.3,3.4,1.7,6,3.3c0-0.5,0.3-1.3,0.3-1.9  c2.5-1.1,5.6-1.3,7.8,0.3c-0.3-1.3-0.4-2.1-1.7-3.2c1.9-0.8,3.6-1.9,5.7-2.1c0.1-1.5,0.1-3,0-4.5c-2,1.5-2.9,0.1-4.4,0.7  c-1.2,0.4-2.1,1.5-3.4,1.9c-2.4,0.8-7.3,1.9-9.9,1.2c-0.9-4.2-11.8,1.7-9.4-6.5c4.5-1.5,7,3,11.8,1.9c1.1-5.4,6.1,1.3,9.4,0.7  c-2-3.2,3.4-2.5,2.6-5.8c-2,0.3-3.7-0.5-4-2.7c-2-0.1-4-0.5-4.6-2.5c-5.7,1.7-8.1,0.8-13.8-0.4c0.7-3.2,2.8-3,4.8-3.2  c1.7-0.1,5.4-0.3,7.7-0.1c-0.8-1.1-1.2-1.9-2.4-2.5c0-0.4,0.4-1.5,0.8-2c1.2,0.7,2.5,1.5,3.8,1.9c-1.1-3.8-0.7-4.2,2.8-3.8  c2,0.3,0.5-0.8,2.5,0.5c1.1,0.8,0.7,1.6,2,2.1c0.5,1.5,1.1,2.8,1.5,4.4c0.4-2.8,9.4-3,11.3-1.6c1.5,1.3,1.6,3.6,3,5  c0.9,1.1,3.8,2.1,5.2,2.8c-0.8-0.9-0.8-2.1-1.2-3.2c1.6,0.1,2.6,0.5,4.4,0.7c-2.6-2.4,0.4-3.8,0.8-6c-2.3,0.4-2.9-1.2-4.5-1.5  c-2-0.3-3.7,0.1-5.6-0.5c-1.5-0.5-3.3-1.9-4.5-2.9c-0.5-0.4-2,0-2.6-0.8c-0.5-0.7,0.3-1.9-0.1-2.5c-0.5-1.1-0.8-4.6-1.3-5.3  c-1.3-1.7-2.6-1.2-4.8-1.9c-2.6-0.8-5.4-2.4-8.6-3c0.4-0.5,0.3-1.3,0.5-1.7c-1.7-1.2-2.6,0.1-4,0c-1.6-0.3-2.8-1.5-4.6-1.5  c0.1-1.2-0.4-2.7-0.3-3.8c-1.7-0.1-3.7-0.3-5.3,0.3c-0.1-0.7-1.2-1.6-1.3-2.4c-2.5,0.9-6.5,4-8.1-0.1c-0.1-0.4,1.2-2.9,0.8-4  c-0.5-2-2.5-1.7-3.4-3.2c-4-6.2,3.2-9,8-6.2c-0.3-0.9,0-1.6-0.4-2.5c1.9,1.1,5.3,0.7,7.3,0.9c3,4,4.6,14.6,7.3,5.3  c1.6,1.7,3.4,2.9,4.8,4.9c0.1-3.3-0.3-9.7-2.5-11.9c-1.9-2-4.1-1.7-6.4-3c-1.5-0.8-2.6-2.5-4-3.4c-1.9,1.2-4.2,2-6.4,1.9  c0.1-1.5-0.4-2-0.9-3.2c-1.6,0.9-5.2,1.3-7,1.1c-1.7-2.6,0.7-5.6,0.7-8.5c3.6,0,7.2-1.7,5.3-5.4c-2.1-4.1-3.2,1.1-7.3-0.1  c-0.5-8,1.9-4,7.2-5.3c-0.4-4-2.1-2.8-4-4.5c-1.9-1.7-2.4-2.7-1.9-6c1.2,0.4,2.9,0.9,4.5,0.5c0.1-2.8-3.3-5.3-5.8-5.3  c-1.9-3.2,0.3-3,1.2-4.5c0.5-0.8,1.6-0.8,2-2c0.3-0.8-1.3-2.8-1.3-2.9c2-4.2,6.2,0.9,9.8-1.3c-1.2-4.2-6.6-2-7.8-6.8  c-0.7-2.8,0.7-1.5,1.3-3.6c0.5-1.7-0.1-2.8-0.4-4.8c-0.8,0.7-5,3.7-6,3.2c-1.3-0.8,0.5-5.7,0.7-7.3c0.5-6.1-2-10.1-4.2-15.4  c-2.3,1.3,1.1,8.3,1.1,10.9c-0.1,1.7-1.2,4.2-0.9,6.5c0.3,2,1.5,2.9,1.2,5.2c-1.9,0.5-3.8,1.1-5,2.8c-2.6-6.4-10.3,0.9-4.2,3.4  l0.7,3.3c2.9-0.7,4.4,0.8,4.5,3.3c0.1,1.2-1.2,2.7-1.2,4c0,1.5,1.1,1.9,1.2,2.8c0.4,2.4,0.9,6.2-2.5,6c-2-0.1-3-2.1-3.4-4  c-2.6-0.3-7-0.8-9.1,1.3c-3,3-1.3,5.2,1.3,6.4c6.1,2.9,11.9-1.2,11.1,8.7c-0.7-0.1-2.6-1.3-3.2-1.3c-1.2,0.1-2.4,1.5-3.3,1.5  c-3.6,0-2.6-2.1-6.2,0.4c-3,2.1-6.1,7.7-5,11.4c3.7,0.7,4,1.5,7.4,0.3c2.8-0.9,4.4-1.7,7.7-1.5c1.3,5.4-3.8,3.7-4.6,8  c-0.3,1.7,2.1,2.8,1.2,4.5c-0.9,2-2.6,0.8-4,1.5c-3.2,1.6-5.7,3.4-2.8,6.2c2.3,2.3,0.4,0.4,3.4,0.7c1.7,0.1,2.9-0.3,4.5,0.7  c0.4,1.6,0.8,2.8,0.7,4.5c-4.2-0.3-4.4,1.7-7.2,3.6c-3.2,2.3-2.9,1.5-5.7-0.8c-2.9-2.4-3-3.4-7.2-2.7c-2.8,0.5-6.6,1.9-6,6  c3.2,0.3,6.5,0.5,9.8,0.9c1.6,2.4-2.4,8.6,1.3,8.5c-0.4-3.4,2.6-4.5,5.4-4.5c-0.8,4.6,2.6,2.1,5.2,2.5c-1.2,0.9-1.5,2.4-0.9,4  c3.7,1.1,1.6,5.7-0.3,7.4c-3.2,3.3-7.3,1.9-6.8,8c-1.7,0.8-5.4,2.1-7.3,2.1c-2.8,0-5.2-2-8.1-2c-3.2,0-10.5,4-10.7,7.9  c-0.1,3,1.1,1.5,2,2.3c-0.4-0.4,3.6,1.3,3.2,1.2c1.6,0.5,0.1,1.5,2.8,1.5c1.1,0,2.4-0.9,3.3-1.3c7.4-2.9,5.7,1.9,6.1,7.7  c3.4,0.4,7-0.7,7.4-4.5c1.1-0.3,2.8-0.3,3.8,0c-1.2,1.5-2.3,3.2-1.9,5.2c5.8-4.1,8.2,8.6,0.7,7.6c0.4,5-4.5,8.3-9.4,7.2  c0.9-7.4-7.3-1.1-10.1-0.5c-1.3,0.3-2.6-0.1-4,0c-1.3,0.1-2.3,1.5-3.4,1.5c-2.1,0-3.8-1.1-6-0.5c-3.4,0.7-10.5,5-3.6,6.4  c1.1,0.3,5.2-2,5.6,0.8c0.1,1.2-3.6,2.8-4,4.5c1.5-1.5,6.2-1.7,8.6-1.7c3,0,5.6-0.3,7.9,0.8c1.7,0.8,1.3,2.5,3.3,2.4  c1.9-0.1,2.7-1.9,4-2.5c2.3-1.1,6.1-2.7,8.6-1.9c-1.1,1.5-4.2,1.9-6.1,3.2c-1.9,1.3-1.5,2.1-3.8,2.8c-1.2,0.3-2.9-0.4-4.1,0  c-2.8,0.9-2.9,3.6-6.6,2.8c-1.7-0.4-3.2-2.3-5.2-2.7c-1.2,1.1-2.1,2.5-2.8,3.8c-3.6-2.7-10.2-4.2-14.7-1.5c-2.1,1.3-4.1,4.9-2.6,7.6  c1.5,2.9,3.4,1.3,6,1.5c-0.1,3,3,3,5.2,3.8c-2.5,4.6,3.8,2.4,5.6,2.1c-0.1,2,0.8,3.7,2.6,3.8c-0.1-2.9,1.5-9.1,5.4-8.5  c-0.1,1.6,0.3,3.6,0.8,5c0.9-1.3,1.9-1.5,3.2-1.7c0.4,0.7,0.8,1.7,0.7,2.5c-2.5,0-6.4,4.6-2,4.9c-0.8,1.5-0.8,3.3,0.9,4.5  c1.6-0.9,2.1-2.8,3.7-3.8c0,1.9,0.8,3.4,1.5,5c0.5-1.9,2.3-5.4,4.5-5c-1.7,3.2-1.1,4.5-1.2,7.8c0,0.9-1.2,2.3-1.2,3.6  c0,0.8,1.5,1.9,1.5,2.6c-0.5,6.2-7.8,2.5-11.9,4.8c1.9,3.3-2.5,3.2-2.8,5.8c-0.1,0.9,1.7,1.3,1.9,2.1c0.4,1.7,1.1,3.6,0.8,5.8  c-4.8,0.8-7.4-3-11.3-4.8c-4.8-2.3-6.2,1.6-10.2,0.4c-2.3-0.7-4.6-3.3-7.2-3.6c-2.1-0.3-4.5,0.5-6.6,0.7c-2.5,0.1-4.6-0.5-6.5,1.3  c-1.5,1.5-2.3,3.6-0.3,4.9c-1.5,1.3-1.5,3,0,4.5c1.9,2,1.7,0.4,3.3,0.5c1.3,0.1,2.7-0.3,4.2,0.1s1.9,1.6,4,1.5  c-0.1,1.6,0.1,3.2,0.9,4.5c1.5-0.4,2.9-0.7,4.2-1.3c-2.3,3.4-2.6,6.5-2.3,10.7c1.9-0.3,2.3-3,2.6-5.2c2.9,0.4,6.6,2.9,4.6,6.5  c2.5-0.3,5.4,0.1,5.4,3.3c5.4-0.3,6,3,7.7,7.6c-1.6,1.2-7.2,5-9,2.5c-1.1-1.5,1.5-2.4,1.3-4c-0.1-1.3-1.9-2.4-2.1-3.8  c-3.6-1.6-7-1.7-9.9-0.1c-0.1,0-1.7,1.9-2,2c-0.3,0.3-1.5,0.4-2,0.7c-1.6,0.9-3,1.1-2.5,3.2c0.9,0.1,1.5,0.8,2.5,0.9  c-0.9,3.7-2.3,7-7.2,4.4c0.4-0.9,0.3-2.8,0.4-3.8c-1.9-1.1-4.1-0.8-5.8-1.3c0.1,0.9-0.4,2.3-0.3,3.2c-1.2-0.3-3.2-1.6-4.5-1.3  c-2.5,0.5-1.6,2.7-3.2,3.6c-2.4,1.5-6.6,0-6.8,4.4c3.8-0.1,3.2,4.5,7.8,2.9c-1.9,3-7,1.2-9.8,0.4c-4-1.2-7.2-2.3-11.5-1.9  c-5.6,0.5-11.3,1.9-16.7,0.8c-5.6-1.1-11-3.8-16.7-3.4c-5.7,0.4-9.8,1.1-14.8-1.9c-5.3-2.9-9-2.9-15.2-2.9  c-11.1,0-22.8,0.7-33.4,3.3c-9.9,2.5-18.8,7.4-29.4,7.4v30.3c0.8-0.5,1.6-1.1,2.3-1.5c0.8,1.7,2,3.2,3.3,4c0.9-1.5,1.2-3.3,1.1-5.2  c2.4-0.5,4.1,1.2,5.2,3.2c2.1-2.5,1.5-7.2,5.2-4.9c1.1,0.7,3.6,7.3,4,8.6c3.2-2,5.2-6.4,7.7-9.4c0.5,1.7,1.9,3.3,3.6,4  c0.4-0.7,1.5-1.2,1.7-1.6c0.9,2,1.9,4.1,3.6,5.2c0.1-1.6,1.6-3,2-4.4c3.8,2.7,2.6,5.3,7.4,3.7c3.4-1.2,4.8-3.2,6.2-6.2  c4.9,0.9,4.1-4,6.8-6.4c1.2,7.2,4.6,0.7,6.2-0.9c1.1,2.4,2.3,5,4.5,6.1c0.1-0.5,0.3-1.1,0.4-1.6c1.7,1.5,2.9,4,5,5.2  c-0.1-1.7,0.9-2.8,1.2-4.2c5.2,2.1,5.8,8.7,7.8,13c0.8-2.9,2.3-5.4,2.9-8.5c1.6,2.5,3,5.4,6.1,6.8c0.4-1.9,1.1-3.4,2-4.9  c3.4,2.1,6.9,4.6,11.3,4.2c1.6-2.9,0.8-6.4,2.1-9.5c3.7,0.4,7,4.8,9.4,7.7c1.6-4.2,7.3-2.9,10.9-4.1c2.4-0.8,3.7-2.7,6.2-2.8  c2.5-0.1,4.2,2.1,7,1.7c1.2-2.9,1.5-6.4,3.7-8.7l8.1-3.6c-0.8-0.7-1.5-0.8-1.7-1.6c3,1.3,7.2,3.3,10.5,3.3c0.3-0.4,0.3-0.9,0.1-1.3  c2,1.9,5.2,0.9,6.2,4c-1.6,0.9-3.3,1.3-5.2,1.2c-0.5,3.3,3,3.6,2.4,6.9c-1.6,0.1-2.4,1.2-4.1,1.2c-1.1,3.7,2.4,5.3,4.2,7.7  c-0.5,0.1-1.1,0.3-1.6,0.4c0.3,2.5,2.9,4,5,5.4c-4.8,4,2.5,8.1,6.1,9.7c-3.2-1.7-7-0.3-10.5-0.9c-3.6-0.8-6.9-1.7-9.1-5.2  c-2.1,2.3-5.4,1.1-7.6,3.3c-1.3-2.9-4.4-10.9-8.1-5.3c-0.7-2.6-2.3-5.7-5.4-5.2c-0.4,8.2-4.6,1.6-7.3,0c-3-1.9-7.6-0.8-10.6-1.9  c0.1,2.3-0.1,4.9-1.2,6.9c-9-1.2,2.9,7-1.6,10.6c3.6,0.7,6,2.7,8.7,4.9c-1.6,1.9-2.5,4.9-5.2,5.2c3.3,0,6.8-0.5,9.5,1.1  c-1.3,1.5-3,3.3-4,5.2c2.5-0.3,4.5,0.9,4.9,3.6c-1.3,0.7-2.7,2-4.1,2.7c4.2,0,9.8,4,13.8,2.1c0.3,2.9,1.3,10.5-1.3,11.3  c2.8-0.5,5.8-0.7,8.5-1.7c-0.1,0.9,0.4,2.4,0.3,3.3c6.1-1.7,3.6,1.9,7.2,5.4c0.9-0.8,3.2-1.6,4.1-2.5c0.1,1.9-0.7,8.6,2.9,8.1  c2.7-0.4,2.9-5.8,2.3-7.8c1.9,4.4,5.6,9.9,4.2,14.4c1.7-1.3,5.7-2.7,7-4.6c-0.1-0.8-0.1-1.7,0-2.8c0.5,1.1,0.5,2,0,2.8  c0.5,2.8,2.9,4.5,4.5,6.5c2.1,2.8,5.7,6.1,1.9,9.3c2.3-1.9,5.2-3,7.6-4.5c0.4,3,0.3,6.5,0,9.5c-1.6-0.1-3.6,0.4-5,0.3  c-1.2,2.7-0.3,5.6-2.8,7c-1.7,1.1-7.8,0-9.7-0.1c0.3-3.7-1.6-7.4-5.3-7.8c-1.7,2-2.8,4.9-5.4,5.2c-0.4-2.4-2.9-10.9-5.4-11.5  c-5-1.3-4,8-10.6,6.2c0.8-3.7,0.7-11.9-3.8-14.2c-5.2-2.5-2.3,1.5-4.5,3.4c-2.4,2.1-4.5,2.4-7.7,3c0.4,1.5,1.1,3.6,1.6,5  c-3.6,0.5-7.2,2.5-10.3,4.6c1.6,1.5,3,3.3,4,5.2c-2.5,1.2-6.4,2.3-8.9,1.5c0.1,5.2-2.7,9.8,3.4,11.4c-0.3,2.7-5,3.7-7.6,4.2  c4.6,1.1,9,3.2,13.6,0.8c-3.8,3.6-8.1,7-13.6,6.2c4.5,0.8,7.9,1.9,12.9,1.7c-2.6,2.5-6.4,1.7-9.4,3.8c1.9,1.7,4.9,2.6,7.8,2.5  c0.5-0.1,1.1-0.1,1.6-0.1c-0.5,0.1-1.1,0.1-1.6,0.1c-1.6,0.4-2.9,1.3-4,2.6c1.3,0.5,3.2,0.9,5,1.1c0.8-2.8,5.7-3.6,7.7-2  c-1.7,1.9-4.8,2.3-7.7,2c-0.1,0.3-0.1,0.4-0.1,0.7c-0.3,4,6.1,4.8,8.7,4.6c-4.9,4-12.1,4.4-17.2,7c1.2,0.4,2.3,0.8,3.6,0.8  c0.4,0,0.8,0,1.2,0c-0.4,0-0.8,0-1.2,0c-4,0.1-12.5,1.5-11,6.2c1.6,5,14.4-0.3,17.6-0.8c0.1,3.3-11.5,10.2-14,13  c1.5,1.5,2.9,1.3,4.4,0.8c1.5-1.2,3.3-2.1,5-2.4c-1.7,0.4-3.4,1.7-5,2.4c-1.1,0.9-2,1.9-2.7,2.9c0.8,0,1.7,0.3,2.5,0.3  c0.1,0.9,0.1,1.5,0,2.4c-5.3,1.3-7.3,6.8-11.5,9.8c-3.2,2.4-6.8,2-9.5,3.7c3.6,4.8,12.1,3.3,17.5,3.7c-1.2,2.6-4.1,5.4-6.2,7.6  c4.4-3.3,6.1-0.4,3.7,3.3c-2.3,3.4-5.7,4.2-7,8.5c1.6,1.7,3.7,2.9,6,3c0.9,6.1-8.3,7.8-13,8.7c2.3,1.3,4.4,2.6,6.9,2.8  c0.8,0,1.6-0.1,2.4-0.1c-0.8,0.1-1.6,0.1-2.4,0.1c-3.3,0.3-6.8,0.9-9.8,0.8c-5.3-0.3-7-4.4-11.4-6.2c-0.9,4.5,4.8,7.3,5,11.4  c-4.4,1.2-12.9-3.3-8.6,5.6c1.7,3.6,8.5,8.6,12.2,9.9c0.9,4.2-4.2,2.9-6.9,4.5c1.2,3.2,5.8,4.1,8.6,5.8c-3.4,0-6,1.7-9.4,2.1  c-0.1,4.5,10.3,11.1,13.9,13.9c-1.5-0.1-3.4,0.4-4.9,0.4c5.7,6.9-4.4,7.7-8.9,12.1c1.5,0.5,2.9,2.8,4.1,3.2c2.5,0.5,2.4-0.8,4.9-1.9  c4.2-1.7,10.6-4.1,14.8-3.6c-2.9,4-7.7,7.3-10.6,11.4c-4.8,6.6-3.3,8.2-11.3,10.7c3.6,2.1,7.4,1.9,11.7,1.7h-0.1c0.1,0,2-0.1,0.7,0  c-0.3,0-0.4,0-0.7,0c2.3,0.5,4.5,1.1,6.6,2c-0.9,3.2-4.2,3.6-5.2,6.6c2.8,1.7,5.7,1.9,8.5,3c-2,3.7-2.1,7.8-6.1,8.1  c0.5,0.3,1.1,0.7,1.9,0.9c-2.4,4.5-9.3,5.6-14,5.3c-0.5,3.3,4.1,6.2,7,7c4.8,1.2,5.3-2,9.5-2.5c2.4,5.4,2.3,10.2-3.2,13.5  c-4.9,2.9-12.2,2.3-16.2-2.3c3.2-4.2-6.5-6.9-7.2-11.1c4.1-2.8,5.3-9.1,6.1-13.5c1.3-7.2-4.4-6.2-6.1-12.5c3.7-2.1,4.1-7.7,4.5-11.4  c0.7-5.8-3-5.2-4.5-10.2c-0.8-2.8,0.8-3.4-0.8-6.2c-0.7-1.3-3.7-2.6-4-4c-0.4-1.6,3.7-7.8,4.6-10.7c-4.6-1.2-8.3-3-9.5-8.1  c3.3-0.1,7.8,0.5,8.9-3.7c1.1-4.4-5-6.8-5.2-10.7c-0.1-3.8,4.1-5.3,3.4-9.8c-0.5-3.7-5.7-5.6-5.2-9.7c4.9-1.2,14.7-10.5,13.1-16  c-3.2-0.7-7.2-2.5-6.9-6.2c2.5-0.5,5.2-1.1,6.1-3.6c-1.9-0.4-3.4-1.3-4.4-2.6c4.6-2.8,8.2-6.9,6.9-12.6c-2.9,2.1-7.6,4.2-11.3,3.3  c0.1-4.6,6.5-5.3,6-12.2c-0.3-2.7-1.7-4.9-1.6-8.1c0.1-3.6,1.9-7.3,2.5-10.6c-6.1,2.7-6.9,10.1-12.2,12.1c2.5-3.7,5.7-8.6,6.1-13.2  c0.4-4.8-1.5-7.7,1.5-12.6c-2,0.7-3.8,1.6-5.6,2.7c2.7-4.8,6.5-9.3,6.6-15c-4.8-0.7-7,1.9-11.3,2.5c-0.4-2.3-1.2-4.5-1.2-6.9  c-0.7,0-1.6-0.3-2.3-0.3c1.6-1.3,3.7-2.8,5-4.1c-6.8-0.7-14.8-5.6-2.6-7.6c0.1-0.9,0.1-1.5-0.1-2.4c-2.9,0.3-7.3,0.3-6.9-3.6  c8.9,0.5,1.6-9.1-0.4-11.5c-1.9-2.4-4-4.4-4.9-7.4c-1.1-3,0-5.2-2.1-7.7c-1.5,1.6-5.6,5.7-6.4,7.6c-1.6,3.7-0.1,2.3,0.9,6.5  c1.6,6.6-5.2,10.5-11.3,8.2c0.1,2.8,4.9,4.9,5,7.2c0.1,3.7-5.4,5.6-8.6,5.3c-0.8,2.9,0.9,4.9,0.7,7.7c-6.6,1.7-2.8,4.9-0.8,8.9  c-7,2.8-8,4-4.4,11.8c2.8,6.2,2.3,8.6-6.1,8.2c-0.4,2.3,0.1,4.4,1.3,6.4c-11.1,3.2-1.5,4.1,1.2,9.5c-3.3,2.7-6.5,2.7-10.5,2.8  c0.5,2.5,3.7,6.5,3.7,8.7c0.1,4.4-2.3,3.2-6.4,4.6c0.3,4,4.5,6.1-0.9,9c3,5.4,7.4,9.9-0.9,13.1c1.3,5,3.7,5.6-1.9,9.9  c-1.1,0.8-2,1.3-2.9,1.9v168h520.7c1.9-1.6,3.6-2.9,5.3-3.8c-3.6-2,1.6-6.4,1.1-9.7c-7.7-4.1-13,3.4-20.3,4.2  c-0.4-5,6.4-13.4,10.3-16c-5-0.5-23.9,9.3-22.1,0.3c-2.1-0.9-4.6-1.3-6.9-1.2c1.7-4.4,7.4-7,9.7-11.3c-3.2-0.4-13.1,1.9-15.1,0.8  c-4.1-2.3,0.9-4.6-0.9-7.3c-1.5-2-5.7-0.4-8-0.8c-10.5-2-0.1-5.4,5.2-6.2c8.9-1.5,14.7-10.1,22.3-14.4c7.9,3.7,30.6-8.6,26.1-15  c-3-4.4-8.3,1.6-11.4,3c-3.7,1.6-9.1,3.3-13.1,3.2c4.4-4.1,9.5-7.9,13.1-12.3c2.3-2.8,11.5-10.6,10.6-14  c-2.9-11.4-22.5,1.9-27.4,2.4c-0.9-3.7,1.5-6.2,2.4-9.5c-1.2,0.3-1.9,0-3.2,0.7c7.4-7.7,15.2-16.4,4.4-23.8  c-0.1,1.9-1.2,3.6-2.8,4.2c0.9-3.7,4-6.5,4.9-10.5c-2.4,0.5-4.6-0.1-5.2-2.7c-5.6,0.4-8.5,10.2-14.8,11.4c0.3-1.6-0.9-3-0.9-4.2  c-3.7,0.4-6.8,4.2-10.6,5.3c-4.4,1.2-7.4,0.7-11.7-0.1c0.1-3.2,5.7-4.5,6.9-7.7c-5.6-0.1-14.2-2.1-11.4-9.1  c2.5-6.2,11.1-6.9,10.3-15.1c-3.3,1.5-6.4,5.3-10.5,4.2c-1.3-5,7.6-5.3,7.7-9.7c0.1-3.8-5.2-2.6-6.9-5.3c3.7-2.8,9.1-4.8,12.2-8.2  c2.8-3,4.8-7.7,7.9-11.3c-3.2-0.7-9.1,3-9.4-1.7c8.5-0.9,15.8-0.9,18.5-10.7c-2.8-1.9-6.5-0.9-9.5-1.2c-0.3-0.5-0.3-0.9,0-1.5  c1.9-0.1,6.5,0.7,8-0.8c0.5-0.5,0.7-6.2-0.3-7.2c-4.5-4.6-16.8,0.8-22.1-4.6c1.6-1.1,2.4-2,4.4-2c-2.5-1.5-7.3-0.4-10.6-1.7  c2.6-6.1,18.4-2.7,6.2-12.5c2.1-4.8,11-1.9,11.5-7c0.1-1.2-3-3.3-3.4-4.6c-0.7-2.3-0.3-4.8,0.8-6.8c5.3,0.3,10.9-2,15.6-3.6  c-2.5-0.3-5.2-0.1-7.7-0.3c-0.1-0.9-0.1-1.5,0-2.4c4.5-1.6,9.1-2.4,12.5-6.4c-0.5-0.4-1.1-1.3-1.6-1.7c6.4-3.8,10.3-6.1,11.8-13.5  c-2,1.1-4.4,2.4-6.5,2.7c2.9-4.6,6.5-5.3,4-11.4c-2.1,0.7-4.2,2.8-6.9,3.3c0.5-2.4,1.2-5.2,0.7-7.8c-4.2-0.9-12.5,1.9-16.4,3.4  c-1.2-1.1-3.7-1.2-5.7-1.1c0.3-0.8,0.4-1.7,0.7-2.4c-2.6,0.7-4.2,1.5-7,1.5c-2.3,0-5.6-0.5-8-0.8c0.1-0.4,0.3-1.2,0.4-1.7  c-3.3-0.5-13.5-0.5-13.8-4.2c0.4,0.1,1.9,0.4,2.4,0.7c-0.8-1.5-0.4-2.5-0.7-4c2,1.1,3.8,1.7,6,1.3c0.1-1.3-0.1-2.3-0.8-3  c2.6,2.4,4.5,6.2,8.9,4.8c-0.9-4.8-6.1-8.6-6.6-13.2c0.7,0.3,1.6,0.4,2.1,0.9c-0.1-3.7-4.2-5.7-3.3-9.5c0.9,0,2.1-0.4,3.2-0.1  c-4.1-0.3-7.8-4.4-12.1-5.6c-0.3-0.5-0.3-0.9,0-1.5c6.1,1.1,4.1-6,4.5-9.8c6.6-1.6,7.8,4.8,11.5,8.5c-0.8-1.9-1.9-3.6-3.4-4.9  c2.8-0.4,6.4,3.6,8.5,5.2c0.9-3.8-1.3-6.9-1.5-10.5c2.5,1.2,5.2,2.4,7.6,3.6c-1.5-1.5-1.3-2.6-1.3-4.4c5.7-1.9,4.4,8.1,7,11.1  c-0.1-2-0.1-4,0.1-5.8c2.5,1.6,4,4.6,7.7,3.3c-3.2-3-5.2-6.9-7.7-10.3c1.9,0,3.3-0.8,5.2-1.2c-0.3-0.9,0.1-1.6-0.4-2.7  c1.6,0.3,3.3-0.5,4.1-0.7c-3.6,0-5.6-4.1-7.7-6.5c1.1-0.1,1.3-0.8,2.3-1.1c0-0.8-0.5-2.5-0.9-3.2c-1.5-0.3-2.5-1.5-3.3-1.7  c2-0.3,4-0.7,5.2-1.7c-6.6-0.3-11.8-3.6-18.7-0.5c2.4-7.4-11.1-7.8-15.6-7.7c0.8-0.1,2.1-0.9,3.2-1.1c0-1.7-0.3-3.6-0.7-5  c3.3-0.3,6.4-0.4,9.4-0.9c-0.7-0.4-1.6-0.9-2.4-1.2c1.6-0.8,11.4,0.7,13.4,2.5c-0.7-1.5-1.3-2.9-2.4-4.2c6.9-1.1,9.5,7,16.3,0.9  c-2.5-0.5-2.8-2.8-2.5-5.2c-4.6-2.5-16.4,1.6-17.9-5.4c-3.4,0.3-6.1,0.9-7.8-2.8c2.5-0.5,4.1-2.5,3.6-5.2c6.2,0.7,12.5-2.7,18.4-3.6  c-0.5,2.1-2.3,4-3.3,6c4.5,2.5,12.9,0.8,16.4-2.6c-1.2,3.8-8,10.9-5,13.5c3.7,3.3,14.3-1.2,18-2.4c-3.2,6.1-9.8,11-15,15.8  c11,4.8,26.8-3.3,37.1-7.4c9.8-3.8,24.9-9.7,32.2-17.2c-3.7,8.3-14.2,15.6-20.5,21.7c6.2,1.7,14.4-4,20.3-6.1  c7.7-2.6,15.9-5.3,23.5-8.7c7-3.2,13.9-6.9,20.3-11.1c6.4-4.4,13.4-6.6,19.9-11c-3.3,3.8-5,8.9-8.7,12.3c-4.1,3.8-10.1,6.5-14.4,9.8  c-8.7,6.5-20,10.1-28.2,16.8c11.4-2.5,21.2-6.2,32.6-10.1c16.6-5.6,33.7-11.3,50-16.4c19.6-6.4,39.8-12.9,58-22.3  c9.4-4.9,15.4-13.6,25.7-6.2c4.2,8.1,11.8,17.6,17.9,24.6c-6.5,1.9-13.1-3.3-19.5-4.4c-4.2-0.7-18.7-1.9-22.3,0.3  c-5.7,3.3,12.2,7.3,15.2,8.1c7,1.7,12.6,5.4,19.6,7.8c16.3,5.4,32.9,10.6,49.3,15.9c14.8,4.8,27.3,12.3,41.7,18.3  c8.5,3.4,17,7.7,25,12.1c5,2.7,12.7,6.6,16,11.5c0.5-3.2-1.2-5.4-0.8-8.5c1.2,0.1,3-0.5,4.2-0.3c-1.9-2-4.1-5.4,0-6.2  c-2.4-3.8,0.9-3.4,0.9-6.2c0-2-1.5-6.6-2.4-8.5c2.7-1.7,2.1-6.8,1.1-9.3c4.6,1.2-0.1,7.7,5.7,7.3c0.1,2,0.1,4,0.3,6  c3.2-0.3,5.4,11.4,5.3,15.1c0.7,0.3,3,0.7,3.4,0.7c-0.5-0.9-0.3-2.1-0.9-3c1.2-0.1,2.3-1.2,3.4-1.3c-0.8-0.4-1.2-1.3-2.4-1.7  c0.1-2,1.6-3,2.4-5c-4.5-1.3-3-4.5-0.9-7c-0.9-2-0.1-3.4,0.3-5.4c6.9,3.3,1.7,19.5,9.5,18.7c-0.3,0.8,0.1,1.6-0.4,2.7  c1.6,0.4,3.4,0.4,4.9,0.7c0.7-3.2-2.1-2.3-2.4-4.4c-0.1-1.3,1.1-3.8,1.5-5.2c0.7-2.4,0.1-6.9,0.9-9.3c1.1-3.2,4.8-5.4,5.6-8.6  c0.3-0.9,0-4.5,0-5.3c0-2.4-0.1-4.8,0.1-7c0.9,0,1.5-0.1,2.4,0c1.2,1.7,0.9,1.5,2.6,2.7c-0.1,1.5,0.5,3.6,0.3,5  c0.8,0,1.7,0.3,2.4,0.3c-0.4,0.7-0.5,2.5-1.3,3.4c1.5,1.6,0.5,2.9,1.6,4.2c1.2,1.5,3.7,1.6,5,2.8c0-2.8-2.9-2.6-4.2-5  c1.3-0.4,2.1-1.9,3.4-2.3c-0.9-0.5-2-2-3.4-2.4c2-2.1,4.6-10.5,2.6-11.5c2.7-3.6,2.4-10.9,0.9-15c0.5-0.5,2-1.5,2.6-1.6  c0.5,0,2.8,0.4,3.4,0.7c-0.7,0.8-1.2,2.5-2.4,3.3c1.9,0.1,4,0,5.8,0.3c-1.6,1.2-3.8,2.7-3.3,5c1.7,0.1,2.8,1.2,4.2,1.9  c-0.7,1.9-2.4,3.4-3.4,5.2c2.3,1.6,4.8,0.7,7,2c-0.9,1.2-1.9,2.8-2.5,4.4c1.7,0.8,3.3,1.5,5.2,2.1c0.1,5-1.2,10.5,4.5,11.7  c-2.5,3.4-1.3,5.4,1.2,8.5c1.9-2.9,7.7-7.4-0.1-8c1.3-2.5,4.8-2.4,5.8-5.2c-5-2.3-4.5-4.1-3.2-8.9c0.3-0.8-0.8-1.9-0.8-2  c0.3-1.2,1.7-2,1.9-3.2c0.3-1.7,1.1-3,0.1-4.5c0.3,0,2.7,0.7,3.2,0.9c-0.3,0.7-0.1,2.4-0.7,3.3c1.5,0,2.8,1.2,4.2,1.2  c-0.8,2.5-2.4,2.8-1.7,5.4c0.5,2.1,6.1,1.1,2.3,5.2c0.4,0.1,3.8,1.5,4,1.9c0.4,1.2-1.5,3.7-1.5,3.6c1.1,2.5,4.8,4,4.4,7.8  c3-0.8,5.2-3.7,4.2-6.9c-1.7-0.1-3.4-0.5-5.2-1.2c1.6-5,7.8-2.6,4.4-8.1c-2.3-3.6-6.5-1.9-2.8-7.6c-4.4-3,5-16.2-0.7-17.4  c0.8-1.3,2.5-2.6,4.2-3.4c-0.5-1.6-0.4-2.9,0-4.5c0.7,0.3,1.6,0.5,1.9,1.1c0.7,2.5,1.5,2.4,1.1,5.8c3.2,0.4,2.5,4.9,2.5,7.3  c0,0.8,1.3,1.2,1.6,2.6c0.3-2,0.5-3.8,0.3-5.3c-0.8-3.7-5.4-7.8,0.4-9.8c-0.3-0.1-0.4-0.3-0.4-0.7c1.5-0.7,2.4-1.3,4.1-1.2  c-1.1,0.4-2,1.2-3,1.6c4.4-0.7,4.5,2.9,4.4,6.2c1.9,0.4,3,1.5,4.2,2.7c-1.3,0.7-1.6,2.3-2.5,2.9c4.1,2.3-1.6,17.1,5.2,16.3  c-0.3,0.4-0.5,1.1-0.9,1.6c1.2,1.3,2.9,2.7,4.4,3.8c-0.5,1.1-0.3,2.3-0.7,3.2c2.3-0.5,4.9-2.1,7.3-3.3c-1.2,0.9,0.9,4.1,0.7,6.9  c0.3,0,0.5,0.1,0.7,0.1c1.2-4,3.6-10.1,0.1-10.9c0.4-2.9,6-5.7,0.9-8.1c4.2-3.4-1.1-6.6,2.4-8.9c-1.6-2.4,1.3-7,1.1-10.6  c-0.1-2.7,0.5-7.8-1.7-9.5c4.4-1.2,0.3-10.9,4.2-14.4c-0.1-0.8-0.5-0.9-0.7-1.6c0.9-1.6,1.2-2,1.9-3.7c6.8,2.8,0.8,17.2,7.8,19.5  c-3.3,2.9-0.9,11.9-4.5,14.3c4.2,2.4,3,9.9,7.2,10.9c-4.1,3.2-1.6,5.2-0.1,8.9c1.7,4.4,2.1,7.6,2.9,12.3c0.3,2,1.7,2.5,1.7,4.5  c0,0.9-1.2,4-1.1,4.2c0.5,3.6,1.7,1.1,3.7,4c0.8,1.3,0.9,5.2,1.2,6.8c0.5,0.1,0.9,0.3,1.5,0.3c0,0-0.7,3.7-0.8,3.4  c0.4,0.7,2.9,2.9,3,3.3c0.5,2.4-0.9,4.5-1.1,7.3c0.8,0,1.6,0.3,2.4,0.3c0,0.8,0.3,1.6,0.3,2.4c4.4,0.5,4.6,3.4,7.7,5.3  c2.3-4.4,1.6-7,0.9-11.4c-0.7-4.1,3.2-10.5-1.5-12.7c2.3-4.2-0.8-9.9-2-14c-0.5-1.7-2.7-5.6-2.7-7.2c-0.1-3.2,6.1-6.5,0.1-8.2  c2.8-5.6,1.3-5.7,0.8-11.4c-0.5-4.8,2.8-6.9,3.4-10.5c-0.7-0.1-1.5-0.8-1.6-0.8c8.3-2,3.6-8.7,4.5-14.3c0.8-4,7.2-6.8,6-10.7  c-5.4-0.3-4.4-4.4-2.7-7.2c-2.1,0-4.6-0.3-6.6-1.2c2.3-4.1-2.9-4.6-4.8-6.8c2.4-0.3,5.7,0.5,8-0.1c4.4-1.3,2.6-0.8,2.9-4.6  c0.1-2.1-2.4-12.6,2.1-13.2c1.5,4.4,4.2,8.7,7.6,11.7c-1.1,0.7-2,2.7-2.6,3.4c4.5,2,2,10.5,7,8.9c1.2-0.4,3.8-4.6,3.8-5.8  c0.1-3-2.5-2.8-3.2-5.3s1.2-2.1,1.2-4.6c0-2.3-1.2-4.6-1.1-7.2c0.3-4.2-0.1-7.2-0.8-11.3c1.6,1.2,3.2,2,5.2,2.5  c-2,5.3,1.2,4.2,3.6,8.1c0.9,1.7,0.4,3.8,1.2,5.2c0.9,1.6,3.6,2,4.4,3.3c0.9,1.7-0.8,3,0.1,4.8c0.8,1.5,3.4,1.2,4.1,2.8  c1.9,4-2.1,8.3,3.7,10.7c-2.8,3.3-0.3,5,0.3,8.6c3.7,0.3,4.4-6.6,4.4-9.7c0-2.4-1.5-4.5-1.6-6.2c0-0.8-1.1-0.9-1.2-1.7  c-0.3-1.6,2.1-1.5,2-2.7c-0.7-6-6-14.6-4.4-20.4c-0.1,0.1,1.9-0.9,1.6-0.8c-0.7,0.1-1.6-0.3-2.4-0.1c2.4-0.9,2.4-1.1,1.6-3.4  c8-2.4,4.8,5.2,5.3,8.7c0.4,2.7,2.5,3.2,2.9,5.2c0.4,2.3-1.6,2.5-1.2,4.8c0.3,1.3,2,4.8,2.5,6.2c-0.1-0.1,0,2.8,0,2.9  c0.1,0.7,1.7,1.1,1.9,1.7c0.4,3.4,0.7,9.5,0.3,13.1c4.8,0.9,9.7-11.1,4.5-12.5c-0.1-2.9,2.3-3.8,2.4-6.8c0-2.4-5.7-2.4-1.7-6.2  c-4.1-1.1-4-11.7-1.2-12.7c-0.3,0.1-0.4,0.4-0.4,0.8c1.9,0.5,4,0.4,5.4-0.5c0.5,0,2.5,0.7,3.2,0.9c-0.7,4.4,5.8,3,2.9,7.7  c0.9,0.3,1.3,1.1,2.4,1.2c-0.1,1.7,0.3,4,0.8,5.2c0.4-2,1.3-2,2.3-3.3c1.1,0.7,2.1,0.3,3.2,0.7c0.8-2.9-2.3-6.6,0.9-6.9  c-0.5,0.8-0.5,1.3-0.7,2.4c4.2,0.5,3.3,3,5.4,5.3c2.7,2.8,3.6,2.9,7.8,3c-0.7,0.5-1.2,2-1.9,2.7c0.1,0.5,0.9,2,1.2,2.5  c1.3,0,2.3,0.8,3.3,1.1c-0.9,1.5-0.5,2.7-0.7,4.4c0.5,0.1,0.9,0.3,1.5,0.3c0.7,3.3,1.2,14.3,4.5,15.1c-0.1,1.5,0.5,3.3,0.1,4.9  c0.7-0.4,1.3-0.7,2-1.1c-1.3,2.4-2.3,6.6,1.6,6.9c-1.5,2.9-0.4,6.4,3.6,6.2c-5,6.9,7.4,9.7,11.5,10.7c-0.7,5.6-5.4,11,1.7,13.4  c-3.6,4.2-4.1,5.3-4.4,11.1c3.8-4.5,9.7-9.7,15.8-6.9c-4.1-0.8-7.8,5.2-7.7,8.6c1.6-1.6,3.7-2.7,6-2.3c-0.4,3.3-6.8,4.6-1.2,8.9  c0-2.8,4.8-3.2,7.4-2.5c-1.6,2.8-4.5,6-3.3,9.5c1.2-0.9,4.5-2.7,6.1-1.7c2.9,1.6,0.8,3.6,0.8,6.2c0,2.1,0.3,5.2,1.7,6.6  c3,3,3.3,0.9,7,0.5c-0.5,1.7,0.3,2-1.3,3.4c2.3,0.4,3.6,2,3,4.2c-4.5,0.8-1.3,9.4,0.1,12.3c0.9-3.8,7.6-2.9,10.3-1.5  c-9.4,3.3,1.7,22.4,8.3,18.2c0,8.5-8.1,16.2-7,24.5c1.1-1.3,3-1.9,4.1-2.4c0.5,1.5,2,3.4,2.1,5c0.1,2.3-0.8,2-1.3,4.5  c-1.1,5-1.2,9.9,2.8,14.2c-2.9-5.6,8.3-6.5,11.7-7.6c-2.3,3.4-5.6,6.2-7.7,9.9c-4,6.9-1.3,6.1,1.5,13c-2.3-0.4-2,0.1-3.3-1.6  c0.1,0.3,0.5,1.3,1.2,2.9c4,0.3,8.5,0.5,11.9-0.8c-2.3,3.6-4.1,8.3-8.6,9.9c0.4,1.1,0.8,2.1,1.2,3.2c0.7,0.3,1.5,0.5,2.1,0.9  c-0.3,0.7-0.7,1.1-1.2,1.6c0.9,2.5,2,5.3,3,8.2c2.3,0.1,4.8-0.3,6.5-1.3c-1.2,2.5,0.1,7.2-4,8.2l0,0c2.3-0.1,5.6,0,6.4,1.9  c0.7,1.9-2.3,3.7-3.7,5.3c0.1,0.3,0.3,0.5,0.3,0.8c2.9,0.3,6,0,8.7,0.3c0,0.4-0.1,0.7-0.4,0.7c0.4-0.1,0.8-0.1,1.3,0.1  c-0.1,2.3-3.4,7.7-5.8,9.4c0.3,0.7,0.4,1.2,0.7,1.9c0.5,0.5,0.9,0.9,1.6,1.3c-0.3,0.3-0.5,0.5-0.8,0.8c0.4,1.2,0.8,2.3,1.2,3.4  c0.1,0,0.3,0.1,0.4,0.1c-0.1,0.3-0.1,0.4-0.1,0.5c0.7,1.7,1.3,3.6,1.9,5.3c1.7,0.9,4.1,1.5,6.1,2c-1.3,1.1-2.9,2.7-3.8,4.2  c0.9,2.8,2,5.6,2.9,8.3c1.7,0.3,3.6,0.5,4.8,2.4c-1.3,0.7-2.4,1.6-2.9,2.8c0.5,1.3,0.9,2.7,1.3,4c2.3,0.4,4.6,0.9,6.9,1.7  c0.3,3.7,2,8.2-3.4,8.1c0,0.1,0.1,0.3,0.1,0.4c1.9,0.8,4.6,1.6,6.9,1.3c0,1.7-0.9,3.3-2.4,4.5c2.3,3.4,7.4,7.9,12.1,6.9  c-1.6,2.7-7.8,10.2-6.9,11.4c-0.4,0.1-0.9,0.4-1.3,0.5c0.5,1.9,1.1,3.6,1.5,5c-2.4,2.5-4.4,6.4-8,6c0.1-0.9-0.4-2.4-0.3-3.3  c-0.8,0-1.7-0.4-2.5-0.3c1.5-2.7,7-6.6,5-10.3c-1.7-3.4-8.5-1.2-11.3-3c1.1-1.9,1.1-4.5,0.7-6.8c-0.9,0.1-2.4-0.4-3.3-0.3  c0.1-2.3,0.1-4.9-1.2-6.9c-0.5,0.3-0.9,0.5-1.5,0.7c1.7-4.4,0.5-9.8-1.7-13.2c-0.9,4.2,2.4,25.3-7.3,23.9c1.7-2.9,1.7-11.9-0.4-15  c-0.8,2.5-3.7,4.1-6.8,3.3c0.1-2.5,2.5-4.8,2.7-7c0.1-2.1-2.1-4.2-2.9-6.2c-1.2-2.9-0.1-3.8-0.7-7.2c-0.5-2.7-3-3-2.8-6.1  c-0.8,0-1.6-0.3-2.4-0.3c-0.1-5.2,0-8-1.7-13.2c-1.1-3-4.5-8-3.3-10.9c-1.1,1.5-2.5,5.4-2.4,7.3c0.3,3.8,2.8,3,3.4,5.6  c1.7,5.7-6.2,9-3.6,13.9c-2.4,0.7-5.6,0-6.6-2c-0.3,0.1-0.7,0.3-1.2,0.5c-1.7,4-1.2,8.3,1.5,11.3c-1.7-1.3-3.2-1.1-4.1,1.1  c-1.3,2.8,1.6,3,1.6,4.2c0.1,3.2,0,4.8-5,3.7c0.1,2.8-0.5,7-0.1,10.6c0.5,0.1,1.1,0.3,1.6,0.4c-1.3,0.8-1.2,1.5-3.3,1.7  c-0.5,2.5,6.5,18.5-1.7,12.5c-0.3,2.3,1.2,6.9,2.5,8.7c1.7,2.8,3.7,2.9,6,5.4c-3-0.5-5.6,1.1-8.5,1.1c2,2.4,2.3,7.8,4.9,8.7  c-3.6,1.7-10.5,1.7-14.6,1.9c3-1.9,0.4-3.3,0.7-5.2c0,0-0.8-1.9-0.7-2.7c0-0.5,1.3-0.8,1.3-1.2c0.5-3.7,2.5-7.2-2.4-9  c1.3-2.3,1.7-6-1.7-6.2c0.4-0.7,0.4-1.9,0.7-2.4c-1.9,0.4-4,1.1-6,0.7c-0.1-0.5-0.3-0.9-0.3-1.5c-0.9,0.1-2.1-0.3-3-0.1  c2.1-1.9,1.7-4.5,1.3-7.2c-0.8,0.3-1.7,0.4-2.5,0.7c1.5-2,1.3-5.7,2.5-8.1c-2.5,0-5.4-2.4-7.8-0.9c1.9-2.5,4.9-4.5,5.2-7.7  c-2.4-0.4-4.2-1.7-4.2-4.2c-3,1.9-5.3-0.4-5.7-3.2c-4.5,1.1-0.3,4.6,0.3,7c-1.1,0.3-1.6,0.9-2.4,1.2c5.7,6.2,0.1,8.6-1.1,14.2  c-0.1,0.9,1.3,2,0.9,3.6c-0.4,1.5-2.5,2.6-2.5,2.9c-0.5,2.1-2.1,3.6,1.3,4.5c-0.8,0.3-1.5,0.8-2.3,0.9c0.8,0.5,1.1,1.3,2.5,1.7  c-1.6,3.6-7.8,3.4-11.4,3.6c0.3,2,5.6,6.8,7.3,7.7c2.9,1.7,6.4,0.3,9.1,2c-3.6,2-13.2,1.1-14.7,4.5c1.3,0.3,2.9,1.6,4.2,2  c-1.3,2-6.6,2.4-9,3c-3.4,0.9-6.4,3.3-8.6-1.3c1.9-0.7,3.6-2,4.4-3.6c-2.5-0.3-5.3,0-7.8-0.4c1.5-2,3.8-1.9,6.1-3.3  c-1.6-2.7-0.4-4.8,1.2-5.7c-3.3,0.8-6.5-0.9-9.7-1.5c2.5-0.3,8.1-2.4,8.7-5.3c0.5-2.7-0.4-4.8-2.9-4c6.5-1.5-2.3-8,5.2-11.1  c-2.7,1.5-5.7,0.7-8.3-0.3c1.7-2.1,2.7-6.6,4-9.5c-2,0.9-5.2,0.7-6.8-0.3c-0.7-2.9,1.1-5.4,0.8-8.5c-1.2,0.8-2.3,0.1-3.4,0.4  c0.5-5.8,2-13.1-2.7-18.3c0,1.9-0.3,4-0.9,5.8c4.8,3,1.9,18.7-3.4,20c1.2,1.1,0.9,2.4,1.3,3.2c-1.5,0-2.8,1.2-4.2,1.2  c0,2.3,2,3,4.2,2.6c1.1,6.4-6.5,2.1-8.6,4.5c-2.1,2.4,0.1,7.4,3.3,8.1c-1.2,0.5-2.3,1.6-4.1,1.7c1.1,0.5,2.1,2,3.2,2.5  c-0.8,2.5-3.4,3.2-6.1,2.8c1.1,3.8,1.3,10.6,6.9,9.8c0.7,3.3-2.4,3.8-5.2,3.6c-0.3,4.4,3.7,5.3,7,5.4c-2.1,1.5-10.9,2.4-8.9,6  c1.9-0.5,3.6-1.9,5.3-2.5c-2.4,4.8-12.3,5.7-16.7,8.7c0.3-3.7-2.8-3.8-5.4-2.8c0.1-2,1.5-3.7,3.2-5c-4,3.3-6-0.7-10.3-0.3  c1.3-5.3,8.2-8.1,9.7-14c-1.3,0.5-3.6,0.3-4.9,0.7c0.9-1.5,1.6-3,2.3-4.6c-2.3,0.4-5.8-0.7-7.8-0.7c-0.9-4.6,5.6-4,6-7.7  c0.1-1.1-2.7-1.3-1.7-4.5c0.5-1.7,3.4-1.2,3.6-3.6c-2.3-0.3-4.5-0.1-6.8-0.1c2.7-1.5,1.7-4.2,1.9-6.1c-3.2,1.5-7.8,0.9-6-3  c0.8-1.9,5.8-0.1,4.8-4.2c-0.4-1.9-3.6-2.5-5.2-2.8c2.4-1.6,5.3-3.3,6.6-6c0.9-1.9,0.1-4.8,1.1-5.8c-1.1,0.4-2.1,0.3-3.4,0.3  c0-0.4,0.1-0.7,0.4-0.8c-2.3-0.3-4.5,0.3-6.5,1.1c2.8-1.1,3.4-3.3,4.5-5.3c-3.3,2.7-7.9,2.4-11.8,0.5c2.3-3,6.9-5.4,7.8-9.5  c-5-0.3-5.2,0.3-6.9-3.4c-0.1-0.4,0.9-1.9,0-3c-1.2-1.7-3.2-0.7-3.8-1.6c-3.4-4.1,0.5-11.8-4.2-15.1c0.9,1.3,1.3,6.5,0.8,8.9  c-0.4,1.6-2.7,2.1-2.8,3.4c-0.3,1.3,1.3,2.8,1.1,4.5c-0.1,0.5-2.7,7.6-2.9,7.8c-1.9,1.9-4.6,0.9-6.9,2.1c2.5,2.8,5.6,2.3,4.2,7.7  c-2.8,0.7-5.3-0.4-7.8-0.7c0.3,2.5,2.1,4.5,2.5,6.9c-0.8-0.5-1.6-0.4-2.6-1.3c-0.3,3.7,3,8.7,7,8.7c0.5,2.8-1.6,4-4.2,4.5  c1.3,3,2.8,7.2-2.7,6.2c0.4,3.8-3.7,2.5-3.8,5.2c-0.1,3.7,3.3,2.1,4.8,4.2c4.4,6-1.3,6.4-6.4,6.6c0.3,0.5,0.3,1.6,0.7,2.4  c-2.3,0.4-3.8-0.4-6.1-0.5c-0.8,5.4,8.3,6,11.1,8.1c-3.4,2.4-7,2.9-11.3,2.5c-2.9-0.3-6.1-2.1-8.7-1.6c-0.8,5.4,9.3,10.5,8.6,16.7  c-2.5,0.4-5.4,0.4-7.8-0.7c-0.8,4,5.2,7.2,8.7,7.3c-3.4,6.6-11,1.5-15.8,1.7c-1.2,4.6,2.3,6.9,4.2,10.3c-1.7,0-2.6,0.9-4.2,1.3  c1.2,3.3,4.5,5.6,7.8,6.2c-2.8,3.6-6.9,4.2-10.5,1.7c2.1,3.7,2.3,12.7,8.6,11.7c0.3,0.5,0.3,0.9,0,1.5c-2,0.1-4.1,0.3-6,0.3  c-0.7,6,7.6,7.3,11.1,8.7c-1.1-0.3-2.1,0.1-3.2,0.1c0.4,2.1,3.8,3.8,3.6,6.1c-0.7,4.1-4.6,1.7-6.5,1.1c-2-0.7-3.6-5.3-5.8-0.9  c-1.9,3.7,3.6,4.6,5,6.8c-0.9-0.5-2.4-1.1-3.3-1.5c3,7,13.1,16.6,20.9,13.2c-3.7,2.9,1.9,5.3,2.8,8.2c1.3,3.7-0.3,8.2-0.7,11.7H1590  V876.9c-0.3-0.1-0.4-0.3-0.7-0.5c-1.9-1.5-2.9-3.4-4.9-4.8c-1.1-0.7-3.8-1.1-4.5-1.7c-1.3-1.3-1.2-3.6-2-4.4  c-3.6-3.8-3.8-1.1-8.7-0.1c0.1-1.6-0.5-3.6-0.3-5.2c-4.2-1.1-9.9,0.9-14.3,0.1c-4.8-0.8-8.9,0-13.9-0.4c0.1-0.9-0.4-2.4-0.3-3.3  c-4.8-0.4-9.8,0-14.2-0.1c-5.2-0.1-9.5,2.7-14.2,3.4c0.1-1.6-0.5-3.6-0.3-5c-3.3-0.7-7.9,1.7-11.3,2.4c-4,0.7-8.5,1.5-12.6,0.9  c1.1-5.8-13.4-6-17.1-5c-3.3,0.8-6.8,4.4-9.8,5.8c-3.4,1.7-7.8,3.3-11.4,3.6c-1.3-8.5-8.3-1.6-12.9,0.1c-8.1,3.2-14,0.1-21.5,0.1  c-3.4,0-7,2.3-10.5,1.6c-2.7-0.5-3-3.3-5.3-3.6c-6.1-0.8-11.3,7.7-17.8,7c0.3-6.4-18.3,1.3-23.3,0c-1.9-0.5-2-2.1-4.4-2.5  c-2.8-0.4-4.6,0.8-7.2,2c-3.7,1.7-6.9,4.4-10.6,6c0.4-1.6,1.1-3.6,1.5-5.2c-6.1-1.1-15,2.9-21.1,4.1c-7,1.5-12.2-0.4-18.9,2.3  c-7.4,2.8-17.2,4.8-23.3,8.6s-14.8,15.9-22.9,14.2c0.3-1.6,0.5-3.6,0.7-5.2c-6,0.4-10.6,8.6-17.6,8.6c2-4.8,7.2-8.9,11.7-11.3  c6.1-3.2,10.9-7.6,16.8-10.7c4.6-2.5,9.9-4.2,14.3-7.3c3.6-2.4,10.6-9.7,14.3-7.2l13.4-8.9c-4.8-2.3-9.4-5.2-12.2-9.9  c1.7,1.1,3.6,2.1,4.9,1.2c-2.8,0.3-5-1.6-4.2-4.5c0.5-0.1,1.1-0.3,1.5-0.3c-0.4-2.8-3.8-3.6-3.3-6.9c7,0.7,9.4,0.4,4.4-6.1  c3-1.3,4.8-1.6,6.2-4.6c0.7-1.5-1.3-2.8-1.1-3.6c0.4-1.3,2.5-1.7,2.8-2.7c1.2-3.7,1.9-2.1,0-5.4c-1.3-2.4-4.2-1.3-4.4-5.4  c4.8-2,5.6-3.6,4.4-8.2c-0.4-1.9-2.7-1.9-2.5-4c0-1.3,2.9-2.5,3.4-3.8c0.8-2-0.7-2.8,0-4.5c0.4-1.1,2.3-2.8,2.5-3.8  c0.5-3-2.3-5.4-1.5-9.4c7.2-1.6,7.9-3.8,7.9-10.9c0-2.5-0.8-6.5,0-9c0.4-1.5,1.9-2.5,2.8-3.8c0.1-0.5,0.4-0.9,0.7-1.3  c-0.1,0.5-0.4,0.9-0.7,1.3c-1.2,3.4-0.3,9,4.2,9.4c-0.5,4-0.9,6.9,4.5,7.2c-1.2,3.3-0.1,7.8-4.2,9.9c1.6,2.5,4.9,3.3,7.6,4  c-0.7,1.7-0.8,3.7-0.4,5.4c1.2-0.3,3,0.5,4.2,0.3c0.1,1.9-0.1,3.6-0.7,5c1.6-0.1,3.6,0.5,5,0.3c1.5,4.6-3.4,9-6,12.2  c2.7,2.3,8.2,4.1,11.3,2.1c0.4,2.9,1.1,7.2-2.4,8.1c-0.4,0.5-0.4,0.9,0,1.5c1.2-0.3,3,0.5,4.2,0.3c0.8,3.2-1.9,5.2-2.7,8  c-0.7,2.1,0.8,4.2-1.3,7.2c1.7,1.5,3.8,1.7,5.7,2.9c-1.5,2.1-3.6,4.6-5.2,6.8c2.5,0.7,5.3,2.4,7.9,2c2.4-0.3,6.1-2.4,7-4.6  c1.9-4.9-5.6-7-1.7-10.2c-5-2.9-2.9-5.3,1.1-6.5c2.8-0.8,6.2,1.6,8-3.4c-0.9,0.5-2.5,0.4-3.3,0.7c-0.1-0.9-0.3-1.5,0-2.4  c0.8,0,1.6-0.3,2.4-0.3c0.3-3.2,0.9-7.2-1.6-9.4c0.7-0.5,1.5-0.8,2.3-1.1c-2.4,4.6,2.8,14.2,8.2,13.4c0.7,1.1,1.1,3,0.9,4.2  c-0.9-0.1-2.4,0.4-3.3,0.3c0.3,2.9,3.7,3.3,4.4,6.1c0.7,2.6-4.2,3-0.1,6.2c5,3.8,13.1-3.4,11.4-8.7c-5.6-1.2,0-3.8,1.1-5.7  c2.3-4.4-0.8-3.6-1.9-8.7c-0.7-3.4-0.4-8.1-0.8-11.4c-0.7-5.3,0.4-5.6,3.4-9.8c-0.8,0-1.7-0.3-2.5-0.3c-1.3-7.6-2.1-17.6,4.9-22.1  c-2.4-2.3-4.6-7.6-1.6-10.1c-2.7-3-2.3-7.2,1.9-8.9c-5.4-5.8,1.2-10.2,3.4-15.1c1.7-3.8,1.5-10.9,0.9-14.8c-0.8,0-2.5-0.8-2.5-0.8  c1.2-1.1,3-2.1,4.2-2.8c0.4,3.6-1.2,8.9,2.1,11.3c2.5,1.9,3-2.8,5.3,1.1c0.8,1.5-0.3,4.9-0.9,6.1c5.2,1.5,6.6,12.9,1.1,13.6  c3.3,0,4.9,2.4,7.6,3.7c0.3,1.3-0.8,3.4-0.5,4.2c0.3,0.9,1.6,4,1.6,4.4c0.7,3.7,1.1,4.1,2.4,7.4c1.9,4.8,6.8,11.4,2.1,16.6  c7.3-0.1,9,6.1,6.9,12.7c-0.9,2.9-4.9,3.8-2.3,6.9c1.7,2,5.7,0.8,7.8,1.6c4.1-1.5,2.7,5.6,1.2,7.6c3.8,0.3,6,4.2,4.9,7.8  c-2.1,0.3-2,0.9-3.3,1.7c1.9-0.1,3.6,0.3,5,0.9c0.1-0.5,0.3-1.1,0.4-1.5c2.5-1.1,5.2-1.1,7.6-2c-0.1-0.5-0.3-1.2-0.4-1.6  c1.2,0.3,3-0.5,4.2-0.3c0.7-5.3-1.1-5.8-3.4-9.5c-3.3-5-2.1-5.7-0.1-10.7c-4.9-3.4-1.3-6.1-0.8-9.8c0.7-3.7-1.1-8.3,0.8-11.7  c2.5-4.5,8.3-2.3,10.6-7.2c1.3-2.8,0.1-9,0.1-12.2c0.4,0.4,0.7,0.8,0.9,1.2c0.7-1.3,0.8-3.4,0.8-4.9c-9.3-1.7-5.4-3.7-3.4-10.9  c1.2-4.2,3.3-11.1,1.1-15.4c0.1-0.3,0.3-0.5,0.4-0.8c-1.1-0.7-1.9-1.5-2.3-3.2c0.9-0.1,1.5-0.1,2.5,0c-0.3,1.3,0.1,2.3-0.3,3.2  c0.7,0.4,1.3,0.8,2.1,1.3c1.1,0.7,2.8,0.4,3.6,1.3c0.9,0.9,0.3,2.3,0.8,2.9c3.3,3.8,3.3,8.2,5.6,13.2c7.6,0.5,5.7,10.6,5.3,15.2  c4.5-0.1,4.8,3,7.2,5.3c3.4,3,3.8,2.5,8.6,3c-1.1,2.5-1.5,5.4-3.2,8c3.6,2.9,6.8,1.5,6.9,7.2c0,5.4-3.8,4.6,1.7,8.6  c4,2.9,6.9,2.8,3.8,8.2c-2,3.6-5.6,3.2-7.3,6.1c3.7-0.3,6.4,1.2,9.5,2.1c-0.4,1.1,0.1,2.1-0.7,3.2c7.3,0.7,9.4-3.3,15.8-5.7  c0.1-3.6-0.9-7.7,2.5-8.3c-0.4-3,0.8-10.5,5.6-9.9c-0.4-4.9,2.1-10.2,2.8-15c0.4-2.7,1.9-6.4,1.9-8.9c0-3.2-1.6-6.1-1.9-9.7  c-0.1-3,0.4-6.1,0-9.1c-0.3-2.1-2.1-5.3-1.9-7.2c0.3-2.1,2.5-4.4,3.6-6.2c1.5-2.5,1.5-6.4,4.4-8.2c-0.7-1.1-0.3-2.3-0.7-3.2  c1.3-0.7,2.6-0.8,4.1-1.6c-0.5,4.1,1.3,7.2,5.3,5.2c0.3,2.5,0,5.2,0.3,7.8c5.4,0,4.2,8.9,12.2,8.3c1.9,3.8,0.3,6.8-0.8,10.6  c-1.3,4.8-1.5,2.8,1.1,6.9c4.4,7.2,4.1,11.7-1.1,18.8c3.6,0.9,6.5-1.2,9.5-2.4c-0.7,2-0.3,2.3,0,4.1c-1.7,3.2,4.1,5,0.3,9  c5.4,2.5,0.7,5.4,0.7,8.2c0,4,3.7,5.7,0.3,9.7c2.4,1.3,4.4,3,6.9,4c-0.8,1.1-0.8,2.9-1.6,4.1c4.9,0.8,4.1,3.6,3.6,7.2  c0.7,0.3,1.7,0.3,2.4,0.3c0.1,0.5,0.1,1.1,0.3,1.5c2-0.3,7.7-4.1,8.9-6C1582.6,823.9,1586.6,824.9,1590,823.4z M274.9,676.7  c-0.4,0.3-0.8,0.5-1.2,0.5c0-0.5,0-0.9-0.1-1.2C274,676.3,274.4,676.5,274.9,676.7z M270.8,675c-0.3,0.3-0.7,0.7-0.9,1.1  c-0.1-0.4-0.3-0.9-0.4-1.2C270,674.9,270.4,674.9,270.8,675z M248.4,688.8c0.7-2.7,3.3-8-2.3-5.4c0.5-2.7,1.9-5.3,4.5-6.1  c-0.5-1.6-2-2.5-3.7-2.5c1.1-2.9,3.6-2,5.7-0.8c0-0.5,0.1-1.2,0.1-1.7c4.6,2,8.1,2.9,12.1,5.8c0.8,0.5,1.9,1.7,3,2.3  c-0.5,0.9-1.1,1.9-1.7,2.5c-0.3-0.5-1.2-1.3-1.5-1.9c-0.8,2.7-6,12.9-9.8,8.1c-1.2,1.3-2.9,1.2-4.4,1.6c0.3-0.5,0.1-1.2,0.3-1.9  C250,689,249.1,688.6,248.4,688.8z M265.7,697.5c-1.3,1.1-1.1,3.2-2,4.5c-2.6,4.2-5.4,1.6-9.4,3.3c-0.8-2.4,0.7-4.4,3.2-4.1  c-0.1-5.4,1.1-4.6,5.4-7.2c2.6-1.6,4.9-4.4,7.8-0.9c1.1-1.1,1.7-2.4,1.6-3.8c2.1,1.1,4.1,0.1,6.1-1.3c1.6,0.9,3.8,1.6,5.8,1.1  c0,0-0.1-0.1-0.3-0.3c0.4,0.1,1.1,0.1,1.6,0.1c-0.8,2.8-5.7,3.3-7.9,3.6c-4.2,0.7-4.5,2.1-7.6,3.8  C269,697.3,266.6,696.9,265.7,697.5z M1343.9,700c0-0.4,0-0.9-0.1-1.3C1344.3,698.8,1344.6,699,1343.9,700z"
     id="path3"
     style="fill:#545604;fill-opacity:0.29545453" /><path
     fill="#000000"
     d="M801,1161.1c-0.5-3.6-6.1-5.3-7.2-9  c-0.7,0-1.6-0.3-2.4-0.3c0.1-0.9-0.4-2.4-0.3-3.3c-4.2-1.2-0.9-1.9-0.8-3.7c0,0.7,2-2.9,1.9-2.7c0.4-0.8-1.3-0.9-1.1-1.7  c2-4.5,4.1-6.5,3.4-12.2c-3,5.2-8.1,0.7-12.2,0.4c0.1,0,0.9-0.7,1.6-0.8c0.3-1.6,0.1-2.9-0.9-4.2c-0.4,0.3-0.8,0.5-1.2,0.9  c2.6-2.8,7-5.3,5.7-9.8c-3.4-0.3-8.9,0.7-11.4-0.8c4.6-1.1,3.6-8.7,6.1-12.6c-3.8-0.3-6.9-0.9-10.3-1.9c1.9-2.3,4.9-3.4,5.8-6.1  c-2.3-0.3-4.6,0-6.8-0.4c4.4-0.8,5.4-9.4,6.8-12.2c-1.7,1.3-5.7,0.8-8.5,0.8c1.9-0.9,1.5-2.4,2.3-3.4c-1.1,0-2.1-0.3-3.2-0.1  c5-2.8,10.6-1.3,9.5-8.6c-2.1,2-5.3,1.7-7.9,1.3c0.3-3.2,5.3-2.9,5-6.9c-0.5-0.1-1.1-0.3-1.5-0.3c-1.1-3.4,2.5-5.8,4.9-7.7  c-2.3,0.5-4.5,1.2-6.8,1.5c0.4-1.5,2.5-3.4,3.7-5.2c1.6-2.4,1.5-5.2,4-7.2c-3.4,0.5-7-0.7-10.1-1.5c2.8-1.2,6-3,5.8-6.4  c-2.7,0.1-5.7,0.1-6-2.7c8.1,0,6.2-6.6,12.1-9.4c-3.8,1.1-11.1,1.2-12.2-1.3c2.8-0.8,7.7-1.9,8.9-4.6c0.4-1.1-0.5-6.1-0.3-7.8  c-0.5-0.1-1.1-0.3-1.5-0.3c-0.4-2,1.1-3.4,2-4.1c-3.4,1.3-8.5,1.2-10.1-1.9c5-1.1,4-7.7,6.8-10.7c-2.8,2-6.4-0.1-7.7-2.7  c3.3-0.8,2.4-5.3,5.8-7.2c-3.2,0.3-5.7-2-7.7-3.6c4-0.1,5.2-5,0.9-5.8c3.8-2.8,8.2-3.7,8.1-9.4c-3.8,1.9-10.7,2.8-9.8-3.7  c0.1-1.3,2.8-2,3.3-3.6c0.5-1.5-0.1-3,0.1-4.5c0.7-2.5,0.9-4.2,2.5-6.1c-2.3-0.4-4.2-1.3-4.2-3.6c0.5-0.3,1.5-0.7,1.6-0.8  c-2.1-0.9-4.2-1.5-6.1-3.2c4.9-3.8-0.9-5.8,0.9-9.4c0.9-1.7,5-1.7,6.4-3.6c1.2-1.6,0.8-4.4,0.5-6.4c-3.3,1.1-8.5,1.2-10.9-2.5  c-2.4-3.8,1.3-6.8,2-9.9c-2.7,0.1-5.4,0.1-7-1.9c-0.1-0.1-1.9-7.8-1.7-8.1c0.8-2.3,3.7-1.7,4.8-3.4c1.6-2.4-0.1-4.9,2.1-7.3  c-4.5,2.1-7.8,0.7-10.2-3.4c-2.4-4.2-1.1-4.5,0.5-8.7c-1.6,0.1-3.6-0.4-5.2-0.3c0.3-4.1,4.6-6.8,5.3-11.7c-1.3,1.6-6.8,2.3-8.9,1.9  c-0.3-2.6-0.9-7.2-0.1-9.7c0.9-2.8,4.5-3.8,4.4-7c-2.1-0.1-3.7-0.8-5.7-0.9c2.5,0,4.5-1.5,5.6-3.8c0.5-1.2,0.1-3.2,0.1-4.5  c-5.4,2.4-5.6,0.4-10.1-4.8c-2.8-3.2-7.2-7.7-8-12.5c-1.7,2.9-3.6,9.3-1.3,12.1c2.8,3.4,7.7-0.3,6,7.2c-1.2-0.3-3,0.5-4.2,0.3  c0.7,4.4,3.2,4.8,2.5,9.7c-0.8,5.7-2,4.6-7,4.6c2.1,3.6,6.5,8.9,6.2,13.2c-0.1,2.3-3.3,3.2-2.8,6.2c0.3,1.2,2.8,3.3,3.4,4.2  c-1.2,0.1-2,0.9-3,1.1c0.3,2.6,1.1,5.4,3.3,7.2c-0.5,0.3-0.9,0.8-1.7,1.1c2.3,4.2-2.3,7.9-7,6.9c0.7,0.1,1.2,0.5,1.5,0.7  c-6.6,3.6,5.4,7.2,7.2,8.2c-2.8,4.9-8.9,5.6-13.9,7.4c0.7,0.1,1.5,0.7,2.3,0.8c0.9,4.9-6.5,3.3-9.5,3.6c-0.4,4.8,4.1,4.5,7.6,4.2  c-4.1,5-10.9,1.7-14.7,4.2c0.3,0.1,0.4,0.1,0.7,0.3c-3.4,0-6-1.1-9.4-0.9c0.5,1.5,0.8,3.6,0.7,5.3c2.3,0.3,4.6,0,6.9,0.3  c-1.2,1.3-2.5,3.3-2.5,5c2.8,0.3,5.8,0,8.5,0.4c-0.7,0.3-1.6,0.7-2.4,0.9c2.1,1.9,8.1,2.8,11.3,2.7c-1.5,4-5.2,5.4-9.4,5.3  c-0.7,3.2,2.5,4.1,4.9,5.3c-4.9-0.1-7.4,0-11-3.7c1.3,3.8,4.6,6.6,6.5,10.1c1.3,2.4,2,4.6,3.8,6.8c1.6,1.9,3.4,1.3,4.4,3.8  c-3.2,2.7-6.5,2.7-10.5,2.8c-1.7,7.7,4.2,11.7,7.8,16.6c-2.1,2-5.7,1.2-7,3.7c-1.2,2.5,1.3,6.5,3.3,7.3c-4,4.9-19.5,8-6.9,13  c-3.7,2.5-8.5,2.9-4.4,7.7c2.4,2.8,3.7-0.1,4.4,4.2c0.3,1.7-2.1,2.8-1.5,5.3c1.2-0.7,2.3-0.3,3.3-0.7c-0.5,2.3-2.9,3.2-2.4,6  c2.1,0.4,3.7-1.1,5-2.4c4.2,4.4-1.9,7.8-4.4,10.3c-6.1,5.7,0.7,4.9,6.1,3.7c-2,1.2-3.4,3-3.2,5.3c0.8,0,1.7,0.3,2.4,0.3  c-0.3,2.9-3,4.9-3.3,7.8c0.8,0,1.7,0.3,2.5,0.3c-1.2,4.2-8.9,9.1-8.7,12.2c2,0.1,4,0.1,6,0.3c0.3,2.8,0,5.7,0.3,8.5  c1.6-0.9,3.3-1.5,5.2-1.3c0,2.3-2.1,3.7-2.4,5.4c-0.3,1.9,2.4,2.4,1.7,4.2c-1.5,4-8.7,3.3-8,7.8c0.9-0.3,2.1,0.1,3.3-0.4  c0.7,8.3-2.6,6.9-7.9,11.9c-4.6,4.4-1.3,8.7,5.2,8.3c-3.7,7.3,0,8.2,7.2,8.9c2.8,5.4-3,7.2-6,10.3c3.8,1.1,9.5-0.5,11.5-4.2  c7.3,1.9-2.4,8.7-2.5,11.4c2.1,0.3,3.6-0.7,4.1-2.5c0.7,4,0.3,6.6-2.5,9.5c-1.7,2-8.1,3.4-8.1,6.5c0,2.9,3.6,3,5.4,4.4  c2.3,1.6,2.9,2.1,3.3,3.8h88.4C801.1,1162.6,801.1,1161.9,801,1161.1z"
     id="path5"
     style="fill:#545604;fill-opacity:0.29545453" /><path
     fill="#000000"
     d="M682.5,1159c0.9-2.1,10.9-10.9,1.1-9.7  c0.3-3,2.3-6,3.6-8.5c-2.8,2.9-7.2,0.3-10.7,0.4c0.8-2,3.4-3.7,5-6.1c2-3.2,2.3-4.6,1.9-8.7c-0.5,0.1-1.1,0.1-1.7,0.4  c0.9-2.4,2.3-4.8,1.7-7.6c-2.9,0.3-12.2,6.2-12.5,0.8c-0.1-4,8.1-8.6,8-13.2c-2,0.9-4.6,1.2-6.9,0.7c-2.9-4.1,2.3-7.2,2.4-11.3  c-2.3-0.3-3.8,0.8-5.8,1.7c1.2-1.9,2.3-3.8,2.4-6c-1.7,0.9-2.6,0.4-4.4-0.5c1.5-4.1,8.1-6.9,6.9-11.3c-0.5-0.1-1.1-0.3-1.6-0.3  c2.6-4.4,6.6-9.5,9.5-13.9c-3,1.5-8.3,4-11.4,1.7c3.2-3.8,2.4-4.8-1.7-6.9c5-1.1,1.9-6.5,5.2-8.7c-3.3,2.3-12.9-4.8-7.2-9  c-7.9-4.6-5.7-4.6,0.9-9.1c-0.8-3.7-5.6-4.5-6-8c5.8-2.1,5.8-6.4,10.3-9.1c-4.2,0.1-10.3,0.3-13-3.3c1.6-1.2,3.4-2,5-3  c-1.6-2.4-4.4-4.1-3.3-7.7c1.7-0.3,3.2-1.2,4.9-1.2c-2.1-1.1-4.9-1.6-4.9-4.1c5.7-1.5,4.2-7.4,7.8-9.8c-1.9,1.6-7.4,0-9.5-2  c4.8-5.2-0.9-4.5-0.8-8.9c0.1-3.2,4.6-5.4,6-9.3c-1.2,1.6-4.2,2.8-6,2.9c0.9-1.6,1.2-4,0.7-6c-0.9,0.1-2.4-0.5-3.3-0.3  c0.9-1.6,2-3.4,2.5-5.2c-1.3-1.3-3-2-4.9-1.7c2.3-2.5,4.1-6.2,4.6-9.5c-2.1,1.7-5,1.9-7.6,1.3c1.3-4.8,8.6-7.4,0-11.7  c2.4-4.1-2.9-6.9-5.6-9.3c0.9,3.6,5.6,17.2-2.5,15.9c0,1.9,1.2,3.2,3.2,3.4c-4.8,0.3-7.7-2.1-12.1-2.7c-0.9,7.7,8.7,9.3,13.1,12.3  c-3.8,3.4,2.8,12.3-3.3,11.8c-1.2,4.8,5,9.1,4.4,15.1c-0.5,5.3-5.4,9.3-4.5,15.1c0.4,3,2.7,4.2,1.2,7.4c-0.8,1.7-2.9,1.7-3.8,3.2  c-1.5,2.3-0.7,1.3-1.1,3.8c-0.3,1.5,0.1,6,0.3,8.1c0.1,3,1.7,5.2,1.6,7.8c-8.5,1.7,5.6,13.6-6,16.3c-1.3,5,3.7,8,4.5,11.4  c0.8,3-3.4,7.8-3,10.7c0.3,2.3,3.7,2.9,3.7,4.4c0,2.9-3.4,1.9-4.4,3.8c-1.7,3.8,0.9,8.3,5.8,8.9c2.8,11.3-11.7,1.1-13.4,5.2  c-1.9,4.2,5.8,5.7,7.3,8.1c1.7,3,0.5,6.8-3.3,4.5c0.4,3.7,12.9,12.9,3.3,14.3c0,2.4,2,4.2,4.4,2.9c8.6,7.6-12.3,16.3-16.8,17.6  c-0.1,5.6,7.4,3.7,1.6,8.5c-2.8,2.3-6.2,2-9.7,2.1c-1.9,7.4,5.3,8.3,7.7,13.5c0.3,0.7,0.4,1.3,0.5,1.9h58.8  C681.8,1161.5,682,1160.1,682.5,1159z"
     id="path7"
     style="fill:#545604;fill-opacity:0.29545453" /><rect
     style="opacity:1;fill:#f2f3eb;fill-opacity:0;stroke:none;stroke-width:4;stroke-linecap:round;stroke-linejoin:round;stroke-miterlimit:4;stroke-dasharray:none;stroke-opacity:0.45991564"
     id="rect4162"
     width="2261.9033"
     height="728.32257"
     x="-482.12903"
     y="757.80646" /><rect
     style="opacity:1;fill:#f2f3eb;fill-opacity:0;stroke:none;stroke-width:4;stroke-linecap:round;stroke-linejoin:round;stroke-miterlimit:4;stroke-dasharray:none;stroke-opacity:0.45991564"
     id="rect4164"
     width="2477.3232"
     height="733.4516"
     x="-441.09683"
     y="788.58063" /><rect
     style="opacity:1;fill:#800000;fill-opacity:0;stroke:none;stroke-width:4;stroke-linecap:round;stroke-linejoin:round;stroke-miterlimit:4;stroke-dasharray:none;stroke-opacity:0.45991564"
     id="rect4166"
     width="1441.2581"
     height="1015.5484"
     x="-538.5484"
     y="429.5484" /></svg>